<?xml version="1.0" standalone="no"?>
<!DOCTYPE svg PUBLIC "-//W3C//DTD SVG 1.1//EN" "http://www.w3.org/Graphics/SVG/1.1/DTD/svg11.dtd">
<svg xmlns="http://www.w3.org/2000/svg">
<metadata>Copyright (C) 2018 by original authors @ fontello.com</metadata>
<defs>
<font id="fontello" horiz-adv-x="1000" >
<font-face font-family="fontello" font-weight="400" font-stretch="normal" units-per-em="1000" ascent="850" descent="-150" />
<missing-glyph horiz-adv-x="1000" />
<glyph glyph-name="mortgage-4" unicode="&#xe800;" d="M954 481l-383 340c-40 39-103 39-142 0l-129-117v46h17c9 0 16 8 16 17v66c0 10-7 17-16 17h-200c-10 0-17-7-17-17v-66c0-9 7-17 17-17h16v-192l-87-76c-12-11-16-27-10-41 5-15 19-24 35-24h62v-467h-16c-10 0-17-8-17-17v-66c0-10 7-17 17-17h766c10 0 17 7 17 17v66c0 9-7 17-17 17h-16v467h63c15 0 29 9 34 24 6 14 2 30-10 40z m-268-91l-362-363c-4-3-9-5-13-5-5 0-10 2-14 5-7 8-7 20 0 27l363 362c7 8 19 8 26 0 8-7 8-19 0-26z m-216-58c0-49-40-89-89-89-49 0-89 40-89 89s40 90 89 90 89-40 89-90z m-37 0c0 29-24 52-52 52s-52-23-52-52c0-28 23-51 52-51 28 0 52 23 52 51z m259-221c0-49-40-89-89-89-50 0-90 40-90 89s40 89 90 89c49 0 89-40 89-89z m-38 0c0 29-23 52-51 52-29 0-52-23-52-52 0-28 23-52 52-52s51 24 51 52z" horiz-adv-x="1000" />

<glyph glyph-name="blueprint" unicode="&#xe801;" d="M233 650c10 0 17 8 17 17v83h17c9 0 16 8 16 17s-7 16-16 16h-17v50c0 10-7 17-17 17s-16-7-16-17v-166c0-9 7-17 16-17z m500-583c10 0 17 7 17 16v267h50c7 0 13 4 16 11 2 6 0 14-5 18l-252 226c-43 38-108 38-151 0l-252-226c-6-4-7-12-5-18 3-7 9-11 16-11h50v-267c0-9 7-16 16-16l500 0 0 0z m250 33h-50v17c0 9-7 16-16 16s-17-7-17-16v-17h-83c-9 0-17-7-17-17s8-16 17-16h166c10 0 17 7 17 16s-7 17-17 17z m-800-150h-16c-9 0-17-8-17-17s8-16 17-16h16c10 0 17 7 17 16s-7 17-17 17z m84 0h-17c-9 0-17-8-17-17s8-16 17-16h17c9 0 16 7 16 16s-7 17-16 17z m83 0h-17c-9 0-16-8-16-17s7-16 16-16h17c9 0 17 7 17 16s-8 17-17 17z m83 0h-16c-9 0-17-8-17-17s8-16 17-16h16c10 0 17 7 17 16s-7 17-17 17z m84 0h-17c-9 0-17-8-17-17s8-16 17-16h17c9 0 16 7 16 16s-7 17-16 17z m83 0h-17c-9 0-16-8-16-17s7-16 16-16h17c9 0 17 7 17 16s-8 17-17 17z m83 0h-16c-9 0-17-8-17-17s8-16 17-16h16c10 0 17 7 17 16s-7 17-17 17z m84 0h-17c-9 0-17-8-17-17s8-16 17-16h17c9 0 16 7 16 16s-7 17-16 17z m83 0h-17c-9 0-16-8-16-17s7-16 16-16h17c9 0 17 7 17 16s-8 17-17 17z m133 0h-66c-9 0-17-8-17-17v-66c0-10 8-17 17-17s16 7 16 17v50h50c10 0 17 7 17 16s-7 17-17 17z m-150 800h17c9 0 17 8 17 17s-8 16-17 16h-17c-9 0-16-7-16-16 0-9 7-17 16-17z m-83 0h17c9 0 16 8 16 17s-7 16-16 16h-17c-9 0-17-7-17-16s8-17 17-17z m-83 0h16c10 0 17 8 17 17s-7 16-17 16h-16c-9 0-17-7-17-16s8-17 17-17z m-84 0h17c9 0 17 8 17 17s-8 16-17 16h-17c-9 0-16-7-16-16 0-9 7-17 16-17z m-83 0h17c9 0 16 8 16 17s-7 16-16 16h-17c-9 0-17-7-17-16s8-17 17-17z m-83 0h16c10 0 17 8 17 17s-7 16-17 16h-16c-10 0-17-7-17-16s7-17 17-17z m-84 0h17c9 0 17 8 17 17s-8 16-17 16h-17c-9 0-16-7-16-16 0-9 7-17 16-17z m-166 0c9 0 16 8 16 17s-7 16-16 16h-17c-9 0-17-7-17-16s8-17 17-17h17z m750 0h66c10 0 17 8 17 17s-7 16-17 16h-50v50c0 10-7 17-16 17s-17-7-17-17v-66c0-9 8-17 17-17z m-834 100c-9 0-16-7-16-17v-50h-50c-9 0-17-7-17-16 0-9 8-17 17-17h66c10 0 17 8 17 17v66c0 10-7 17-17 17z m0-150c-9 0-16-7-16-17v-16c0-9 7-17 16-17s17 8 17 17v16c0 10-7 17-17 17z m0-83c-9 0-16-8-16-17v-17c0-9 7-16 16-16s17 7 17 16v17c0 9-7 17-17 17z m0-84c-9 0-16-7-16-16v-17c0-9 7-17 16-17s17 8 17 17v17c0 9-7 16-17 16z m0-83c-9 0-16-7-16-17v-16c0-9 7-17 16-17s17 8 17 17v16c0 10-7 17-17 17z m0-83c-9 0-16-8-16-17v-17c0-9 7-16 16-16s17 7 17 16v17c0 9-7 17-17 17z m0-84c-9 0-16-7-16-16v-17c0-9 7-17 16-17s17 8 17 17v17c0 9-7 16-17 16z m0-83c-9 0-16-7-16-17v-16c0-9 7-17 16-17s17 8 17 17v16c0 10-7 17-17 17z m0-83c-9 0-16-8-16-17v-17c0-9 7-16 16-16s17 7 17 16v17c0 9-7 17-17 17z m0-84c-9 0-16-7-16-16v-17c0-9 7-17 16-17s17 8 17 17v17c0 9-7 16-17 16z m834 634c9 0 16 7 16 16v17c0 9-7 17-16 17s-17-8-17-17v-17c0-9 8-16 17-16z m0-84c9 0 16 8 16 17v17c0 9-7 16-16 16s-17-7-17-16v-17c0-9 8-17 17-17z m0-83c9 0 16 8 16 17v16c0 10-7 17-16 17s-17-7-17-17v-16c0-9 8-17 17-17z m0-83c9 0 16 7 16 16v17c0 9-7 17-16 17s-17-8-17-17v-17c0-9 8-16 17-16z m0-84c9 0 16 8 16 17v17c0 9-7 16-16 16s-17-7-17-16v-17c0-9 8-17 17-17z m0-83c9 0 16 8 16 17v16c0 10-7 17-16 17s-17-7-17-17v-16c0-9 8-17 17-17z m0-83c9 0 16 7 16 16v17c0 9-7 17-16 17s-17-8-17-17v-17c0-9 8-16 17-16z m0-184c9 0 16 8 16 17v17c0 9-7 16-16 16s-17-7-17-16v-17c0-9 8-17 17-17z m-834-33h-66c-9 0-17-8-17-17s8-16 17-16h50v-50c0-10 7-17 16-17s17 7 17 17v66c0 9-7 17-17 17z" horiz-adv-x="1000" />

<glyph glyph-name="cityscape" unicode="&#xe802;" d="M100 117c-9 0-17-8-17-17v-33c0-9 8-17 17-17s17 8 17 17v33c0 9-8 17-17 17z m0-100c-9 0-17-8-17-17v-33c0-10 8-17 17-17s17 7 17 17v33c0 9-8 17-17 17z m0 200c-9 0-17-8-17-17v-33c0-9 8-17 17-17s17 8 17 17v33c0 9-8 17-17 17z m67-100c-9 0-17-8-17-17v-33c0-9 8-17 17-17s16 8 16 17v33c0 9-7 17-16 17z m0 100c-9 0-17-8-17-17v-33c0-9 8-17 17-17s16 8 16 17v33c0 9-7 17-16 17z m0-200c-9 0-17-8-17-17v-33c0-10 8-17 17-17s16 7 16 17v33c0 9-7 17-16 17z m800 650h-34v50c0 9-7 16-16 16h-100c-9 0-17-7-17-16v-50h-33c-9 0-17-8-17-17v-267h-17v50c0 10-7 17-16 17h-17v17c0 9-7 16-17 16s-16-7-16-16v-17h-17c-9 0-17-7-17-17v-50h-50v334c0 9-7 16-16 16h-50v100c0 10-8 17-17 17h-200c-9 0-17-7-17-17v-100h-50c-9 0-16-7-16-16v-434h-34v50c0 10-7 17-16 17h-100c-9 0-17-7-17-17v-50h-17c-9 0-16-7-16-16v-400c0-10 7-17 16-17h200 134 400 200c9 0 16 7 16 17v783c0 9-7 17-16 17z m-484-17c0 9 8 17 17 17s17-8 17-17v-267h-34l0 267 0 0z m-66 117c0 9 7 16 16 16s17-7 17-16v-50c0-9-7-17-17-17s-16 8-16 17v50z m0-117c0 9 7 17 16 17s17-8 17-17v-267h-33l0 267 0 0z m-67 117c0 9 8 16 17 16s16-7 16-16v-50c0-9-7-17-16-17s-17 8-17 17v50z m-67-117c0 9 8 17 17 17s17-8 17-17v-367h-34l0 367 0 0z m67-733h-50c-9 0-17 7-17 16s8 17 17 17h50v-33z m0 66h-50c-9 0-17 8-17 17s8 17 17 17h50v-34z m0 67h-50c-9 0-17 8-17 17s8 16 17 16h50v-33z m0 67h-50c-9 0-17 7-17 16s8 17 17 17h50v-33z m0 100h-117c-9 0-16-8-16-17v-317h-167v367h17 100 66 67 50v-33l0 0z m0 150v283c0 9 8 17 17 17s16-8 16-17v-267h-16c-9 0-17-7-17-16z m400-484h-33v417c0 9-8 17-17 17s-17-8-17-17v-417h-33v417c0 9-7 17-17 17s-16-8-16-17v-417h-34v417c0 9-7 17-16 17s-17-8-17-17v-417h-33v417c0 9-8 17-17 17s-17-8-17-17v-417h-33v417c0 9-7 17-17 17s-16-8-16-17v-417h-34v50 67 67 66 67 67 83h50 67 67 83 67 33v-467z m100 64c0-10-7-17-17-17s-16 7-16 17v33c0 9 7 17 16 17s17-8 17-17v-33z m0 100c0-9-7-17-17-17s-16 8-16 17v33c0 9 7 17 16 17s17-8 17-17v-33z m0 100c0-9-7-17-17-17s-16 8-16 17v33c0 9 7 17 16 17s17-8 17-17v-33z m0 100c0-9-7-17-17-17s-16 8-16 17v33c0 9 7 17 16 17s17-8 17-17v-33z m0 100c0-9-7-17-17-17s-16 8-16 17v33c0 9 7 17 16 17s17-8 17-17v-33z m0 100c0-9-7-17-17-17s-16 8-16 17v33c0 9 7 17 16 17s17-8 17-17v-33z m0 100c0-9-7-17-17-17s-16 8-16 17v33c0 9 7 17 16 17s17-8 17-17v-33z m67-600c0-10-8-17-17-17s-17 7-17 17v33c0 9 8 17 17 17s17-8 17-17v-33z m0 100c0-9-8-17-17-17s-17 8-17 17v33c0 9 8 17 17 17s17-8 17-17v-33z m0 100c0-9-8-17-17-17s-17 8-17 17v33c0 9 8 17 17 17s17-8 17-17v-33z m0 100c0-9-8-17-17-17s-17 8-17 17v33c0 9 8 17 17 17s17-8 17-17v-33z m0 100c0-9-8-17-17-17s-17 8-17 17v33c0 9 8 17 17 17s17-8 17-17v-33z m0 100c0-9-8-17-17-17s-17 8-17 17v33c0 9 8 17 17 17s17-8 17-17v-33z m0 100c0-9-8-17-17-17s-17 8-17 17v33c0 9 8 17 17 17s17-8 17-17v-33z" horiz-adv-x="1000" />

<glyph glyph-name="elevator" unicode="&#xe803;" d="M533 750h-166c-9 0-17-7-17-17s8-16 17-16h166c10 0 17 7 17 16s-7 17-17 17z m-66-133h266v-767h-266v767z m-300 0h266v-767h-266v767z m783 233h-900c-9 0-17-7-17-17v-966c0-10 8-17 17-17h83v800h300 34 300v-800h183c9 0 17 7 17 17v966c0 10-8 17-17 17z m-417-167h-166c-28 0-50 23-50 50s22 50 50 50h166c28 0 50-22 50-50s-22-50-50-50z m362-495l-33-33c-3-3-8-5-12-5-4 0-8 2-12 5l-33 33c-7 7-7 17 0 24 6 6 17 6 23 0l22-22 22 22c6 6 17 6 23 0 7-7 7-17 0-24z m0 100c-3-3-7-5-12-5-4 0-8 2-11 5l-22 22-21-22c-7-6-18-6-24 0-7 7-7 17 0 24l33 33c7 7 17 7 24 0l33-33c7-7 7-17 0-24z" horiz-adv-x="1000" />

<glyph glyph-name="house" unicode="&#xe804;" d="M500 567c-61 0-119-26-159-72-60-66-65-166-12-237l171-262 170 261c0 0 0 0 1 1 52 71 48 171-12 237-40 46-98 72-159 72z m0-314c-63 0-114 52-114 115s51 114 114 114 114-51 114-114c0-63-51-115-114-115z m0 196c-45 0-81-37-81-81s36-81 81-81 81 36 81 81-36 81-81 81z m454 32l-383 340c-40 39-103 39-142 0l-129-117v46h17c9 0 16 8 16 17v66c0 10-7 17-16 17h-200c-10 0-17-7-17-17v-66c0-9 7-17 17-17h16v-192l-87-76c-12-11-16-27-10-41s19-24 35-24h62v-467h-16c-10 0-17-8-17-17v-66c0-10 7-17 17-17h766c10 0 17 7 17 17v66c0 9-7 17-17 17h-16v467h63c15 0 29 9 34 24 6 14 2 30-10 40z m-256-243l-184-282c-3-5-8-7-14-7s-11 2-14 7l-185 283c-61 83-55 200 14 278 48 53 115 83 185 83s137-30 184-82c70-78 76-196 14-280z" horiz-adv-x="1000" />

<glyph glyph-name="house-1" unicode="&#xe805;" d="M183 350h134v-33h-134v33z m84-83c0-9-8-17-17-17s-17 8-17 17v16h-50v-66h134v66h-50l0-16 0 0z m233-17c-46 0-83-37-83-83v-317h166v317c0 46-37 83-83 83z m-33-200h-17c-9 0-17 8-17 17 0 9 8 16 17 16h17c9 0 16-7 16-16 0-9-7-17-16-17z m216 300h134v-33h-134v33z m67-83c-9 0-17 7-17 16h-50v-66h134v66h-50c0-9-8-16-17-16z m-60-241c19 53 69 91 127 91 39 0 75-18 100-46v346h13c15 0 29 9 34 24 6 14 2 30-10 40l-383 340c-40 39-103 39-142 0l-129-114v43h17c9 0 16 8 16 17v66c0 10-7 17-16 17h-200c-10 0-17-7-17-17v-66c0-9 7-17 17-17h16v-33h67c9 0 17-8 17-17 0-9-8-17-17-17h-67v-124l-87-77c-12-11-16-27-10-41 5-15 19-24 35-24h12v-347c25 29 61 47 100 47 58 0 108-38 127-91 31-11 57-34 73-62v203c0 64 53 116 117 116s117-52 117-116v-203c16 28 42 51 73 62z m160 157h-17-166-17c-9 0-17 8-17 17 0 9 8 17 17 17v83 67c0 9 8 16 17 16h166 0c10 0 17-7 17-16v-67c0 0 0 0 0-1v-82h0c9 0 17-8 17-17s-8-17-17-17z m-500 0h-17-166-17c-9 0-17 8-17 17 0 9 8 17 17 17v83 67c0 9 8 16 17 16h166c10 0 17-7 17-16v-67-83c9 0 17-8 17-17 0-9-8-17-17-17z m-250 267h-29c-2 0-3 1-4 3-1 1 0 3 1 4l115 102 111 98 0 0 157 140c14 13 31 19 49 19 17 0 35-6 49-20l383-340c1 0 2-1 1-4-1-2-3-2-3-2h-30l-800 0 0 0z m816-451c-8 48-49 84-99 84-50 0-92-36-99-84-48-8-85-49-85-99 0-14 3-27 9-40 2-6 8-10 15-10h319c7 0 13 4 16 10 5 13 8 26 8 40 0 50-37 91-84 99z m-60-31c-2-1-4-1-6-1-7 0-13 4-15 10-1 0-4 6-18 6-13 0-20-9-20-9-5-8-16-10-23-4-8 5-10 15-4 23 6 9 23 24 47 24 30 0 45-18 49-28 3-8-1-18-10-21z m-574 31c-7 48-49 84-99 84-49 0-91-36-98-84-48-8-85-49-85-99 0-14 3-27 8-40 3-6 9-10 16-10h319c7 0 13 4 15 10 6 13 9 26 9 40 0 50-37 91-85 99z m-59-31c-2-1-4-1-6-1-7 0-13 4-16 10 0 0-4 6-18 6-12 0-19-9-19-9-6-8-16-10-24-4-7 5-9 15-4 23 7 9 24 24 47 24 31 0 45-18 49-28 4-8-1-18-9-21z" horiz-adv-x="1000" />

<glyph glyph-name="house-2" unicode="&#xe806;" d="M500 467c-46 0-83-38-83-84v-50h166v50c0 46-37 84-83 84z m-117-84c0 65 53 117 117 117s117-52 117-117v-50h33v50c0 83-67 150-150 150s-150-67-150-150v-50h33v50z m138-157c-6 5-13 7-21 7-2 0-4 0-6 0-13-2-24-14-27-27-2-12 2-23 11-31 3-3 5-7 5-12v-63l33 0 1 63c0 5 2 9 5 12 7 7 11 16 11 25 0 10-4 19-12 26z m433 255l-383 340c-40 39-103 39-142 0l-129-117v46h17c9 0 16 8 16 17v66c0 10-7 17-16 17h-200c-10 0-17-7-17-17v-66c0-9 7-17 17-17h16v-192l-87-76c-12-11-16-27-10-41s19-24 35-24h62v-467h-16c-10 0-17-8-17-17v-66c0-10 7-17 17-17h766c10 0 17 7 17 17v66c0 9-7 17-17 17h-16v467h63c15 0 29 9 34 24 6 14 2 30-10 40z m-221-431c0-28-22-50-49-50h-368c-27 0-49 22-49 50v234c0 27 22 49 49 49h1v50c0 101 82 184 183 184s183-83 183-184v-50h1c27 0 49-22 49-49v-234z m-49 250h-17-67-200-67-17c-9 0-16-7-16-16v-234c0-9 7-17 16-17h368c9 0 16 8 16 17v234c0 9-7 16-16 16z m-134-144v-56c0-18-15-33-34-33h-32c-19 0-34 15-34 33v56c-13 15-19 36-16 56 5 27 27 49 54 54 20 3 40-2 55-15 15-13 24-31 24-51 0-16-6-32-17-44z" horiz-adv-x="1000" />

<glyph glyph-name="house-3" unicode="&#xe807;" d="M383 417c0 33 15 65 40 87 25 22 59 33 92 28 58-7 102-58 102-119 0-7 6-13 13-13h3c10 0 17 8 17 17 0 41-17 81-48 109-30 29-70 43-112 40-79-5-140-73-140-155v-78h33v84l0 0z m301-117h-284-67-17c-9 0-16-7-16-16v-234c0-9 7-17 16-17h368c9 0 16 8 16 17v234c0 9-7 16-16 16z m-134-144v-56c0-18-15-33-34-33h-32c-19 0-34 15-34 33v56c-13 15-19 36-16 56 5 27 27 49 54 54 20 3 40-2 55-15 15-13 24-31 24-51 0-16-6-32-17-44z m-29 70c-6 5-13 7-21 7-2 0-4 0-6 0-13-2-24-14-27-27-2-12 2-23 11-31 3-3 5-7 5-12v-63l33 0 1 63c0 5 2 9 5 12 7 7 11 16 11 25 0 10-4 19-12 26z m433 255l-383 340c-40 39-103 39-142 0l-129-117v46h17c9 0 16 8 16 17v66c0 10-7 17-16 17h-200c-10 0-17-7-17-17v-66c0-9 7-17 17-17h16v-192l-87-76c-12-11-16-27-10-41s19-24 35-24h62v-467h-16c-10 0-17-8-17-17v-66c0-10 7-17 17-17h766c10 0 17 7 17 17v66c0 9-7 17-17 17h-16v467h63c15 0 29 9 34 24 6 14 2 30-10 40z m-221-431c0-28-22-50-49-50h-368c-27 0-49 22-49 50v234c0 27 22 49 49 49h1v78c0 99 75 182 170 189 52 3 101-14 138-49 37-35 58-84 58-134 0-28-22-50-50-50h-3c-26 0-47 21-47 46 0 44-31 81-72 86-24 3-48-4-66-20-18-16-28-38-28-62v-84h267c27 0 49-22 49-49l0-234 0 0z" horiz-adv-x="1000" />

<glyph glyph-name="house-4" unicode="&#xe808;" d="M954 481l-383 340c-40 39-103 39-142 0l-129-117v46h17c9 0 16 8 16 17v66c0 10-7 17-16 17h-200c-10 0-17-7-17-17v-66c0-9 7-17 17-17h16v-192l-87-76c-12-11-16-27-10-41s19-24 35-24h62v-467h-16c-10 0-17-8-17-17v-66c0-10 7-17 17-17h766c10 0 17 7 17 17v66c0 9-7 17-17 17h-16v467h63c15 0 29 9 34 24 6 14 2 30-10 40z m-257-294c-33-33-184-178-185-180l-12-11-12 11c-1 2-151 147-184 180-72 72-54 169-14 211 34 36 70 54 109 54 40 0 77-22 101-59 24 37 61 59 102 59 39 0 76-19 109-54 40-43 57-140-14-211z m-95 231c-44 0-74-35-86-68l-16-39-15 39c-13 33-43 68-86 68-29 0-57-14-85-43-31-33-43-108 14-165 27-27 136-133 172-168 36 35 146 141 173 168 57 57 44 132 14 165-27 29-55 43-85 43z" horiz-adv-x="1000" />

<glyph glyph-name="house-5" unicode="&#xe809;" d="M581 230c23 30 36 66 36 103 0 92-75 167-167 167s-167-75-167-167 75-166 167-166c30 0 59 8 85 23 3 2 6 3 9 3 4 0 8-2 11-5l171-171 24 23-168 168c-6 6-6 16-1 22z m-131-30c-74 0-133 60-133 133s59 134 133 134 133-60 133-134-59-133-133-133z m504 281l-383 340c-40 39-103 39-142 0l-129-117v46h17c9 0 16 8 16 17v66c0 10-7 17-16 17h-200c-10 0-17-7-17-17v-66c0-9 7-17 17-17h16v-192l-87-76c-12-11-16-27-10-41s19-24 35-24h62v-467h-16c-10 0-17-8-17-17v-66c0-10 7-17 17-17h766c10 0 17 7 17 17v66c0 9-7 17-17 17h-16v467h63c15 0 29 9 34 24 6 14 2 30-10 40z m-169-452l-47-48c-3-3-7-5-12-5-4 0-8 2-11 5l-174 174c-28-14-60-22-91-22-110 0-200 90-200 200s90 200 200 200 200-89 200-200c0-40-12-78-34-111l169-170c7-6 7-17 0-23z" horiz-adv-x="1000" />

<glyph glyph-name="house-key" unicode="&#xe80a;" d="M342 683c0 37-30 67-67 67s-67-30-67-67c0-36 30-66 67-66s67 30 67 66z m-67-33c-18 0-33 15-33 33 0 19 15 34 33 34 18 0 33-15 33-34s-15-33-33-33z m683-463c-1 16-8 32-20 44l-262 262c21 35 32 74 32 115 0 124-101 225-225 225-30 0-59-6-86-18-36 22-77 35-122 35-129 0-233-105-233-233 0-86 47-162 116-202v-465c0-5 3-10 6-13l100-83c3-3 7-4 11-4 4 0 8 1 11 4l100 83c4 3 6 8 6 13v33c0 5-2 9-5 12l-55 55 46 47c7 6 7 17 0 23l-46 47 8 8 271-271c12-12 28-20 44-21 2 0 3 0 4 0 16 0 30 6 41 17l242 242c11 11 17 27 16 45z m-475 613c106 0 192-86 192-192 0-32-8-63-24-91-20 17-45 28-71 32l-78 12c4 18 6 37 6 56 0 69-31 132-79 175 18 5 36 8 54 8z m-225-817c0-9-7-16-16-16s-17 7-17 16v406c11-2 22-4 33-5l0-401 0 0z m26 575c-9-8-15-18-19-29-1-1-1-2-1-3-2-4-3-9-4-13v0c-1-5-1-10-1-14 0-2 0-3 0-4 0-5 0-10 1-14l9-64c-4 0-9 0-13 1-2 0-4 0-6 0-7 1-14 3-21 4-2 1-4 1-5 2-6 1-11 3-17 5-2 0-4 1-5 2-6 2-11 5-17 7-65 33-110 101-110 179 0 110 90 200 200 200s200-90 200-200c0-17-2-34-7-51l-107 16c-5 1-10 1-15 1-1 0-2 0-3 0-5 0-10-1-15-2-1 0-1 0-1 0-5-1-10-2-15-4 0 0 0 0 0 0-11-5-20-11-28-19z m158-225c-37 0-67 30-67 67 0 5 1 10 2 14-36 20-65 49-85 82 0 15 5 29 15 38 1 1 1 1 2 2 17-38 45-71 83-92 12 14 30 23 50 23 36 0 66-30 66-67 0-37-30-67-66-67z m119-249c-4 0-9 2-12 5-6 7-6 17 0 24l106 106c7 6 17 6 24 0 6-7 6-17 0-24l-106-106c-4-3-8-5-12-5z m47-47c-4 0-9 2-12 5-6 6-6 17 0 23l71 71c6 7 17 7 24 0 6-6 6-17 0-23l-71-71c-3-3-8-5-12-5z m165 64l-106-106c-3-4-8-5-12-5-4 0-8 1-12 5-6 6-6 17 0 23l106 106c7 7 17 7 24 0s7-17 0-23z" horiz-adv-x="1000" />

<glyph glyph-name="house-key-1" unicode="&#xe80b;" d="M750 745c-18 0-33-15-33-33s15-34 33-34 34 15 34 34-15 33-34 33z m-16 105c-84 0-150-67-150-150 0-10 1-20 3-28l-248-244c-4-3-5-10-5-15l16-83c2-8 9-13 17-13h83c10 0 17 6 17 16v50h67c10 0 16 7 16 17v50h50c10 0 17 7 17 17v50h50c5 0 10 1 13 6 0 0 14 17 25 30 9-1 19-3 29-3 83 0 150 67 150 150 0 83-67 150-150 150z m16-205c-36 0-66 30-66 67s30 66 66 66 67-30 67-66-30-67-67-67z m242-412c-30 40-58 42-133 2l-144-88c-13-7-35-12-60-14-15-1-31-5-43-15-5 0-8-1-12-1h-250c-50 0-50-25-50-34 0-10-6-16-16-16s-17 6-17 16c0 42 32 67 83 67h250c4 0 7 23-3 38-27 39-72 62-120 62h-65c-35 0-70 12-95 30-60 45-153-3-200-33v36h-117v-433h117v50h217c33 0 68 3 101 8l217 34c8 0 17 1 23 3 20 3 39 12 55 28l252 194c20 16 23 46 10 66z m-908-8v-325-17h-50v367h50v-25z" horiz-adv-x="1000" />

<glyph glyph-name="house-key-2" unicode="&#xe80c;" d="M633 500c-64 0-116-52-116-117 0-10 1-20 4-30v0c4-15 11-28 20-40 0-1 0-1 0-1 6-8 13-15 21-21 0 0 1 0 1 0 12-9 26-16 41-20 9-3 19-4 29-4 65 0 117 52 117 116s-52 117-117 117z m17-171c-37 0-67 29-67 66s30 67 67 67c37 0 67-30 67-67s-30-66-67-66z m-91-76c0 0 0 1-1 1-18 10-34 24-46 41 0 1-1 1-1 2-2 3-4 6-6 9 0 1-1 2-1 2-2 3-4 7-5 10-1 0-1 1-1 1l-230-225 12-61h53v50c0 10 8 17 17 17h67v50c0 9 7 17 16 17h50v50c0 9 8 16 17 16h59c3 4 7 9 12 14-1 0-1 1-1 1-4 1-7 3-11 5z m91 175c-18 0-33-14-33-33 0-18 15-33 33-33 18 0 33 15 33 33s-15 33-33 33z m304 53l-383 340c-40 39-103 39-142 0l-129-117v46h17c9 0 16 8 16 17v66c0 10-7 17-16 17h-200c-10 0-17-7-17-17v-66c0-9 7-17 17-17h16v-192l-87-76c-12-11-16-27-10-41 5-15 19-24 35-24h62v-467h-16c-10 0-17-8-17-17v-66c0-10 7-17 17-17h766c10 0 17 7 17 17v66c0 9-7 17-17 17h-16v467h63c15 0 29 9 34 24 6 14 2 30-10 40z m-321-248c-9 0-19 1-28 3-12-14-25-30-26-30-3-4-7-6-12-6h-50v-50c0-9-8-17-17-17h-50v-50c0-9-7-16-17-16h-66v-50c0-9-8-17-17-17h-83c-8 0-15 6-17 13l-16 84c-1 5 0 11 4 15l248 242c-2 10-3 19-3 29 0 83 68 150 150 150s150-67 150-150-67-150-150-150z" horiz-adv-x="1000" />

<glyph glyph-name="laptop" unicode="&#xe80d;" d="M983 108h-366c-5 0-9-1-12-4l-29-29h-152l-29 29c-3 3-7 4-12 4h-366c-9 0-17-7-17-16v-60c0-31 26-57 57-57h886c31 0 57 26 57 57v60c0 9-7 16-17 16z m-667 384c0 0 0 0 0 0 0 0 0 0 1 0h0c0 0 0 0 0 0 1 0 2-1 4-1 0 0 1 0 1 0 1-1 1-1 1-1 2-1 4-2 6-3l121-122 26 27-160 159-159-159 26-27 122 122c3 3 7 5 11 5z m-83-124v-110h167v110l-83 83-84-83z m186-241l18-19h126l18 19c10 10 22 15 36 15h333v530c0 29-22 53-50 53h-800c-27 0-50-24-50-53v-530h333c14 0 26-5 36-15z m448 98h-134c-9 0-16 8-16 17s7 16 16 16h134c9 0 16-7 16-16s-7-17-16-17z m0 67h-84c-9 0-16 7-16 16s7 17 16 17h84c9 0 16-7 16-17s-7-16-16-16z m0 66h-134c-9 0-16 8-16 17s7 17 16 17h134c9 0 16-8 16-17s-7-17-16-17z m0 67h-84c-9 0-16 7-16 17s7 16 16 16h84c9 0 16-7 16-16s-7-17-16-17z m0 67h-134c-9 0-16 7-16 16s7 17 16 17h134c9 0 16-7 16-17s-7-16-16-16z m-84 100h84c9 0 16-8 16-17s-7-17-16-17h-84c-9 0-16 8-16 17s7 17 16 17z m-200 0h134c9 0 16-8 16-17s-7-17-16-17h-134c-9 0-16 8-16 17s7 17 16 17z m0-67h84c9 0 16-7 16-17s-7-16-16-16h-84c-9 0-16 7-16 16s7 17 16 17z m0-67h134c9 0 16-7 16-16s-7-17-16-17h-134c-9 0-16 8-16 17s7 16 16 16z m0-66h84c9 0 16-8 16-17s-7-17-16-17h-84c-9 0-16 8-16 17s7 17 16 17z m0-67h134c9 0 16-7 16-17s-7-16-16-16h-134c-9 0-16 7-16 16s7 17 16 17z m0-67h84c9 0 16-7 16-16s-7-17-16-17h-84c-9 0-16 7-16 17s7 16 16 16z m-383-16v93l-5-5c-3-3-7-5-12-5-4 0-8 2-11 5l-50 50c-7 6-7 17 0 23l183 184c3 3 7 5 11 5h0c5 0 9-2 12-5l184-183c3-4 5-8 5-12 0-5-2-9-5-12l-50-50c-3-3-8-5-12-5-4 0-9 2-12 5l-5 5v-93c0-10-7-17-16-17h-200c-9 0-17 8-17 17z" horiz-adv-x="1000" />

<glyph glyph-name="laptop-1" unicode="&#xe80e;" d="M983 108h-366c-5 0-9-1-12-4l-29-29h-152l-29 29c-3 3-7 4-12 4h-366c-9 0-17-7-17-16v-60c0-31 26-57 57-57h886c31 0 57 26 57 57v60c0 9-7 16-17 16z m-667 384c0 0 0 0 0 0 0 0 0 0 1 0h0c0 0 0 0 0 0 1 0 2-1 4-1 0 0 1 0 1 0 1-1 1-1 1-1 2-1 4-2 6-3l121-122 26 27-160 159-159-159 26-27 122 122c3 3 7 5 11 5z m-83-124v-110h167v110l-83 83-84-83z m186-241l18-19h126l18 19c10 10 22 15 36 15h333v530c0 29-22 53-50 53h-800c-27 0-50-24-50-53v-530h333c14 0 26-5 36-15z m170 278c7 5 18 4 24-3l69-82 154 231c5 8 16 10 23 5 8-6 10-16 5-24l-167-250c-1-1-2-2-3-3 0 0 0 0 0 0 0 0 0 0-1 0-1-1-2-2-3-3-1 0-1 0-2 0-1-1-3-1-5-1 0 0 0 0 0 0h0c-2 0-4 1-6 1 0 1-1 1-1 1-1 0-1 1-2 1-1 0-1 1-2 2 0 0-1 0-1 1l-84 100c-6 7-5 18 2 24z m-389-163v93l-5-5c-3-3-7-5-12-5-4 0-8 2-11 5l-50 50c-7 6-7 17 0 23l183 184c3 3 7 5 11 5h0c5 0 9-2 12-5l184-183c3-4 5-8 5-12 0-5-2-9-5-12l-50-50c-3-3-8-5-12-5-4 0-9 2-12 5l-5 5v-93c0-10-7-17-16-17h-200c-9 0-17 8-17 17z" horiz-adv-x="1000" />

<glyph glyph-name="mortgage" unicode="&#xe80f;" d="M833 850h-666c-19 0-34-15-34-33v-934c0-18 15-33 34-33h666c19 0 34 15 34 33v934c0 18-15 33-34 33z m-100-417c0-9-7-16-16-16h-117c-9 0-17 7-17 16s8 17 17 17h117c9 0 16-7 16-17z m-87-338c23-25 46-14 46-13 7 3 15 2 20-4l33-33c7-6 7-17 0-23-3-4-7-5-12-5-4 0-8 1-11 5l-26 26c-17-4-41-4-64 14l-39-26c-8-5-18-3-23 5-6 7-4 18 4 23l50 33c7 5 16 4 22-2z m-13 138c0 10 8 17 17 17h67c9 0 16-7 16-17s-7-16-16-16h-67c-9 0-17 7-17 16z m84 50h-167c-9 0-17 8-17 17s8 17 17 17h167c9 0 16-8 16-17s-7-17-16-17z m-84 67h-183c-9 0-17 8-17 17s8 16 17 16h183c10 0 17-7 17-16s-7-17-17-17z m-133-50c0-9-7-17-17-17h-83c-9 0-17 8-17 17s8 17 17 17h83c10 0 17-8 17-17z m-112 345l50 50 50 50c7 7 17 7 24 0l50-50 50-50c6-6 6-17 0-23-3-4-8-5-12-5-4 0-8 1-12 5l-21 21v-76c0-9-8-17-17-17s-17 8-17 17v109l-33 34-33-34v-109c0-9-8-17-17-17s-17 8-17 17v76l-21-21c-7-7-17-7-24 0-6 6-6 17 0 23z m-5-195h150c10 0 17-7 17-17s-7-16-17-16h-150c-9 0-16 7-16 16 0 10 7 17 16 17z m-133 0h67c9 0 16-7 16-17s-7-16-16-16h-67c-9 0-17 7-17 16s8 17 17 17z m0-67h133c10 0 17-7 17-16s-7-17-17-17h-133c-9 0-17 8-17 17s8 16 17 16z m0-66h83c10 0 17-8 17-17s-7-17-17-17h-83c-9 0-17 8-17 17s8 17 17 17z m33-100h-33c-9 0-17 7-17 16s8 17 17 17h33c10 0 17-7 17-17s-7-16-17-16z m150 0h-83c-9 0-17 7-17 16s8 17 17 17h83c10 0 17-7 17-17s-7-16-17-16z m50 16c0 10 8 17 17 17h83c10 0 17-7 17-17s-7-16-17-16h-83c-9 0-17 7-17 16z m267-266h-183c-9 0-17 7-17 16s8 17 17 17h183c9 0 17-8 17-17s-8-16-17-16z m0 383h-50c-9 0-17 8-17 17s8 16 17 16h50c9 0 17-7 17-16s-8-17-17-17z" horiz-adv-x="1000" />

<glyph glyph-name="mortgage-1" unicode="&#xe810;" d="M833 850h-666c-19 0-34-15-34-33v-934c0-18 15-33 34-33h666c19 0 34 15 34 33v934c0 18-15 33-34 33z m-416-900h-167c-9 0-17 7-17 17s8 16 17 16h167c9 0 16-7 16-16 0-10-7-17-16-17z m66 67h-233c-9 0-17 7-17 16s8 17 17 17h233c10 0 17-7 17-17s-7-16-17-16z m-250 150c0 9 8 16 17 16h167c9 0 16-7 16-16s-7-17-16-17h-167c-9 0-17 8-17 17z m250 50h-233c-9 0-17 7-17 16s8 17 17 17h233c10 0 17-7 17-17s-7-16-17-16z m-250 150c0 9 8 16 17 16h167c9 0 16-7 16-16s-7-17-16-17h-167c-9 0-17 8-17 17z m250 50h-233c-9 0-17 7-17 16s8 17 17 17h233c10 0 17-7 17-17s-7-16-17-16z m67 150c-9 0-17 7-17 16v110l-33 33-33-33v-110c0-9-8-16-17-16-9 0-17 7-17 16v77l-21-22c-7-6-17-6-24 0-6 7-6 17 0 24l50 50 0 0 50 50c7 6 17 6 24 0l50-50 0 0 50-50c6-7 6-17 0-24-3-3-8-5-12-5-4 0-8 2-12 5l-21 22v-77c0-9-8-16-17-16z m180-493l-83-117c-3-4-7-7-12-7-1 0-1 0-2 0-4 0-8 2-11 5l-50 50c-7 6-7 17 0 23 6 7 17 7 23 0l36-36 72 101c5 8 16 9 23 4 8-5 10-16 4-23z m0 200l-83-117c-3-4-7-6-12-7-1 0-1 0-2 0-4 0-8 2-11 5l-50 50c-7 6-7 17 0 23 6 7 17 7 23 0l36-36 72 101c5 8 16 9 23 4 8-5 10-16 4-23z m0 200l-83-117c-3-4-7-6-12-7-1 0-1 0-2 0-4 0-8 2-11 5l-50 50c-7 6-7 17 0 23 6 7 17 7 23 0l36-36 72 101c5 8 16 9 23 4 8-5 10-16 4-23z" horiz-adv-x="1000" />

<glyph glyph-name="mortgage-2" unicode="&#xe811;" d="M833 850h-666c-19 0-34-15-34-33v-934c0-18 15-33 34-33h666c19 0 34 15 34 33v934c0 18-15 33-34 33z m-416-900h-167c-9 0-17 7-17 17s8 16 17 16h167c9 0 16-7 16-16 0-10-7-17-16-17z m66 67h-233c-9 0-17 7-17 16s8 17 17 17h233c10 0 17-7 17-17s-7-16-17-16z m-250 150c0 9 8 16 17 16h167c9 0 16-7 16-16s-7-17-16-17h-167c-9 0-17 8-17 17z m250 50h-233c-9 0-17 7-17 16s8 17 17 17h233c10 0 17-7 17-17s-7-16-17-16z m-250 150c0 9 8 16 17 16h167c9 0 16-7 16-16s-7-17-16-17h-167c-9 0-17 8-17 17z m250 50h-233c-9 0-17 7-17 16s8 17 17 17h233c10 0 17-7 17-17s-7-16-17-16z m67 150c-9 0-17 7-17 16v110l-33 33-33-33v-110c0-9-8-16-17-16-9 0-17 7-17 16v77l-21-22c-7-6-17-6-24 0-6 7-6 17 0 24l50 50 0 0 50 50c7 6 17 6 24 0l50-50 0 0 50-50c6-7 6-17 0-24-3-3-8-5-12-5-4 0-8 2-12 5l-21 22v-77c0-9-8-16-17-16z m162-589c6-6 6-17 0-23-3-3-8-5-12-5-4 0-8 2-12 5l-30 30-29-30c-4-3-8-5-12-5-5 0-9 2-12 5-7 6-7 17 0 23l30 30-30 30c-7 7-7 17 0 24 6 6 17 6 24 0l29-30 30 30c7 6 17 6 24 0 6-7 6-17 0-24l-30-30 30-30z m18 296l-83-117c-3-4-7-6-12-7-1 0-1 0-2 0-4 0-8 2-11 5l-50 50c-7 6-7 17 0 23 6 7 17 7 23 0l36-36 72 101c6 8 16 9 23 4 8-5 10-16 4-23z m0 200l-83-117c-3-4-7-6-12-7-1 0-1 0-2 0-4 0-8 2-11 5l-50 50c-7 6-7 17 0 23 6 7 17 7 23 0l36-36 72 101c6 8 16 9 23 4 8-5 10-16 4-23z" horiz-adv-x="1000" />

<glyph glyph-name="mortgage-3" unicode="&#xe812;" d="M991 234c-28 39-57 41-124 6v-49c0-17-9-33-24-42l-96-59 0 0c-26-14-63-21-118-23l-100 0c-22 0-40 14-47 33h-132c-50 0-50-25-50-33 0-10-7-17-17-17-9 0-16 7-16 17 0 41 31 66 83 66h132c7 19 24 33 45 34h0c-13 11-31 17-50 17h-65c-50 0-98 16-136 44-1 1-6 5-18 5-5 0-10-1-16-2-3 0-6 0-9 0-11 0-23 4-32 11-11 10-18 24-18 39v2c-26-10-49-24-66-35v35h-117v-433h117v50h216c34 0 69 3 102 8l216 32c8 1 16 2 23 3 20 3 39 12 55 28l253 196 0 1c20 16 24 45 9 66z m-908-9v-325-17h-50v367h50v-25z m350 308c19 0 34 15 34 34 0 18-15 33-34 33-18 0-33-15-33-33 0-19 15-34 33-34z m200-133c-18 0-33-15-33-33 0-19 15-34 33-34 19 0 34 15 34 34 0 18-15 33-34 33z m-485 117h69v-236c0-5 2-10 6-13 3-3 9-5 13-4 26 5 46 2 60-9 32-25 74-38 116-38h65c38 0 72-18 92-47 7-11 10-19 8-23-3-6-20-13-49-14-9 0-16-8-16-17 0-9 8-16 17-16l98 0c50 2 83 8 104 19l94 58c5 3 8 8 8 14v326h67c7 0 13 4 16 10 2 7 0 14-5 19l-299 270c-50 45-126 45-176 0l-299-270c-5-5-7-12-5-19 3-6 9-10 16-10z m485-217c-36 0-66 30-66 67s30 66 66 66c37 0 67-30 67-66s-30-67-67-67z m-200 333c37 0 67-30 67-66 0-37-30-67-67-67-36 0-66 30-66 67 0 36 30 66 66 66z m-61-305l300 300c6 7 17 7 23 0 7-6 7-17 0-23l-300-300c-3-3-7-5-12-5-4 0-8 2-11 5-7 6-7 17 0 23z" horiz-adv-x="1000" />

<glyph glyph-name="mortgage-5" unicode="&#xe813;" d="M954 481l-383 340c-40 39-103 39-142 0l-129-117v46h17c9 0 16 8 16 17v66c0 10-7 17-16 17h-200c-10 0-17-7-17-17v-66c0-9 7-17 17-17h16v-192l-87-76c-12-11-16-27-10-41 5-15 19-24 35-24h62v-467h-16c-10 0-17-8-17-17v-66c0-10 7-17 17-17h766c10 0 17 7 17 17v66c0 9-7 17-17 17h-16v467h63c15 0 29 9 34 24 6 14 2 30-10 40z m-268-91l-362-363c-4-3-9-5-13-5-5 0-10 2-14 5-7 8-7 20 0 27l363 362c7 8 19 8 26 0 8-7 8-19 0-26z m-216-58c0-49-40-89-89-89-49 0-89 40-89 89s40 90 89 90 89-40 89-90z m-37 0c0 29-24 52-52 52s-52-23-52-52c0-28 23-51 52-51 28 0 52 23 52 51z m259-221c0-49-40-89-89-89-50 0-90 40-90 89s40 89 90 89c49 0 89-40 89-89z m-38 0c0 29-23 52-51 52-29 0-52-23-52-52 0-28 23-52 52-52s51 24 51 52z" horiz-adv-x="1000" />

<glyph glyph-name="placeholder" unicode="&#xe814;" d="M417 460v-93h167v93l-84 83-83-83z m-76 24l26-27 121 122c3 3 8 5 12 5h0c0 0 0 0 0 0 0 0 0 0 0 0h0c0 0 1-1 1-1 1 0 2 0 3 0 1 0 2 0 2-1 0 0 1 0 1 0 2-1 4-2 6-3l121-122 26 26-160 160-159-159z m419 259c-143 143-376 143-519 0-126-126-143-324-41-470l143-201 144-215c3-4 8-7 14-7 5 0 10 3 13 7l148 221 134 188c107 145 91 350-36 477z m-259-543c-157 0-284 127-284 283s127 284 284 284 283-127 283-284-127-283-283-283z m0 534c-138 0-251-113-251-250 0-138 113-251 251-251 137 0 250 113 250 251 0 137-113 250-250 250z m200-250c0-5-2-9-5-12l-50-50c-3-3-8-5-12-5h0c-5 0-9 2-12 5l-5 5v-77c0-9-7-17-16-17h-201c-9 0-16 8-16 17v77l-5-5c-3-3-7-5-12-5h0c-4 0-9 2-12 5l-50 50c-6 6-6 17 0 23l183 184c3 3 8 5 12 5h0c5 0 9-2 12-5l184-184c3-3 5-7 5-11z" horiz-adv-x="1000" />

<glyph glyph-name="real-estate" unicode="&#xe815;" d="M267 677l-160-160 26-27 122 122c2 1 3 3 5 3s3 2 7 2c1 0 3 0 3 0h2c1 0 3-2 5-4l121-121 27 26-158 159z m0-100l-84-84v-110h167v110l-83 84z m666 206h-366v50c0 10-7 17-17 17h-100c-10 0-17-7-17-17v-50h-366c-37 0-67-30-67-66v-367c0-37 30-67 67-67h366v-216c0-42-10-82-28-119-13-5-22-16-22-31v-50c0-10 7-17 17-17h200c10 0 17 7 17 17v50c0 15-9 26-22 31-18 37-28 77-28 119v216h366c37 0 67 30 67 67v367c0 36-30 66-67 66z m-466 34h66v-34h-66v34l0 0z m-55-362c-4-3-7-5-12-5s-8 2-12 5l-5 5v-93c0-10-6-17-16-17h-200c-10 0-17 7-17 17v93l-5-5c-3-3-7-5-12-5s-8 2-11 5l-50 50c-7 7-7 17 0 23l183 184c3 3 7 5 12 5s8-2 11-5l184-184c3-3 5-6 5-11s-2-9-5-12l-50-50z m121-172v-200h-66v200h66z m-90-333c14 32 22 65 24 100h66c2-35 10-68 24-100h-114z m324 467h-234c-10 0-16 6-16 16s6 17 16 17h234c10 0 16-7 16-17 0-10-6-16-16-16z m-250 116c0 10 6 17 16 17h100c10 0 17-7 17-17s-7-16-17-16h-100c-10 0-16 6-16 16z m400-116h-84c-10 0-16 6-16 16s6 17 16 17h84c10 0 16-7 16-17 0-10-6-16-16-16z m0 100h-217c-10 0-17 6-17 16s7 17 17 17h217c10 0 16-7 16-17s-6-16-16-16z m0 100h-384c-10 0-16 6-16 16s6 17 16 17h384c10 0 16-7 16-17s-6-16-16-16z" horiz-adv-x="1000" />

<glyph glyph-name="real-estate-1" unicode="&#xe816;" d="M267 677l-160-160 26-27 122 122c2 1 3 3 5 3s3 2 7 2c1 0 3 0 3 0h2c1 0 3-2 5-4l121-121 27 26-158 159z m0-100l-84-84v-110h167v110l-83 84z m666 206h-366v50c0 10-7 17-17 17h-100c-10 0-17-7-17-17v-50h-366c-37 0-67-30-67-66v-367c0-37 30-67 67-67h366v-216c0-42-10-82-28-119-13-5-22-16-22-31v-50c0-10 7-17 17-17h200c10 0 17 7 17 17v50c0 15-9 26-22 31-18 37-28 77-28 119v216h366c37 0 67 30 67 67v367c0 36-30 66-67 66z m-466 34h66v-34h-66v34l0 0z m66-534v-200h-66v200h66z m-121 172c-4-3-7-5-12-5s-8 2-12 5l-5 5v-93c0-10-6-17-16-17h-200c-10 0-17 7-17 17v93l-5-5c-3-3-7-5-12-5s-8 2-11 5l-50 50c-7 7-7 17 0 23l183 184c3 3 7 5 12 5s8-2 11-5l184-184c3-3 5-6 5-11s-2-9-5-12l-50-50z m31-505c14 32 22 65 24 100h66c2-35 10-68 24-100h-114z m420 690l-166-250c-4-5-9-7-14-7 0 0 0 0-1 0-5 0-10 2-14 7l-83 100c-7 7-5 18 2 23 6 7 18 5 23-1l68-84 155 232c5 8 15 10 24 5 10-7 11-17 6-25z" horiz-adv-x="1000" />

<glyph glyph-name="real-estate-2" unicode="&#xe817;" d="M332 630c-5 30-32 53-65 53-25 0-49-15-59-36 44-10 75-49 75-95 7 1 14 5 19 8l-2 15c-2 17 5 32 15 43 5 5 10 9 17 12z m108-43c-3 3-8 6-13 6l-72 7h-2c-5 0-10-2-15-7s-6-10-6-16l6-72c0-5 4-10 7-13l110-110 95 95-110 110z m-40-104c-5 0-8 2-12 5-6 7-6 17 0 24l34 33c6 7 16 7 23 0s7-17 0-23l-33-34c-4-3-7-5-12-5z m62-45c-4-3-7-5-12-5s-8 2-12 5c-6 7-6 17 0 24l34 33c6 7 16 7 23 0s7-17 0-23l-33-34z m-245 4v15c-5-4-10-4-17-5-5-2-12-2-17-2s-11 0-16 2c0 0 0 0-2 0-5 1-12 1-17 5v-139l34-28 23 20-15 12c-3 3-7 6-7 11s2 10 5 14l22 21-22 22c-6 7-6 17 0 23l29 29z m-32 115c-5 6-3 18 3 23s19 3 24-3c10-12 21-20 36-25 0 36-28 65-65 65s-66-30-66-67c0-22 10-40 26-53 4-2 5-4 9-5s6-4 10-4c0 0 0 0 1 0 14-5 27-5 40 0 4 2 7 2 10 4s7 3 9 5c8 6 15 13 18 23-22 5-42 18-55 37z m748 226h-366v50c0 10-7 17-17 17h-100c-10 0-17-7-17-17v-50h-366c-37 0-67-30-67-66v-450c0-37 30-67 67-67h366v-133c0-42-10-82-28-119-13-5-22-16-22-31v-50c0-10 7-17 17-17h200c10 0 17 7 17 17v50c0 15-9 26-22 31-18 37-28 77-28 119v133h366c37 0 67 30 67 67v450c0 36-30 66-67 66z m-466 34h66v-34h-66v34l0 0z m-24-867c14 32 22 65 24 100h66c2-35 10-68 24-100h-114z m24 133v117h66v-117h-66z m120 382l-119-118c-3-4-6-5-11-5s-9 1-12 5l-122 121c-10 10-15 22-16 35l-2 22c-8-3-18-7-27-7-5-16-15-30-28-41v-44c0-5-2-8-5-11l-22-22 22-22c7-6 7-16 0-23l-20-20 17-12c5-3 6-8 6-13s-1-10-5-13l-50-44c-1-1-6-3-10-3s-8 2-11 3l-50 44c-4 5-5 8-5 13v165c-20 18-34 45-34 75 0 52 39 93 89 100 13 40 51 67 95 67 50 0 91-37 98-85l65-7c13-2 25-7 35-17l122-121c5-5 5-15 0-22z m180-98h-117c-10 0-17 6-17 16s7 17 17 17h117c10 0 16-7 16-17s-6-16-16-16z m-134 116c0 10 7 17 17 17h67c10 0 16-7 16-17s-6-16-16-16h-67c-10 0-17 6-17 16z m284-116h-84c-10 0-16 6-16 16s6 17 16 17h84c10 0 16-7 16-17s-6-16-16-16z m0 100h-134c-10 0-16 6-16 16s6 17 16 17h134c10 0 16-7 16-17s-6-16-16-16z m0 100h-267c-10 0-17 6-17 16s7 17 17 17h267c10 0 16-7 16-17s-6-16-16-16z" horiz-adv-x="1000" />

<glyph glyph-name="real-estate-3" unicode="&#xe818;" d="M267 210l-84-83v-110h167v110l-83 83z m0 100l-160-160 26-27 122 122c3 3 7 5 12 5 1 0 3 0 3 0h2c1 0 3-2 5-3l121-122 27 27-158 158z m583 340c15-20 38-33 67-33 46 0 83 36 83 83s-37 83-83 83c-27 0-52-13-67-33h-833c-10 0-17-7-17-17v-66c0-10 7-17 17-17h166v-67h-116c-37 0-67-30-67-66v-534c0-36 30-66 67-66h800c36 0 66 30 66 66v534c0 36-30 66-66 66h-117v67h100z m-633 0h500v-67h-500v67l0 0z m-34-135v-48c0-10 7-17 17-17s17 7 17 17v48c28-7 50-33 50-65 0-37-30-67-67-67s-67 30-67 67c0 32 22 57 50 65z m279-377l-50-50c-4-3-7-5-12-5s-8 2-12 5l-5 5v-93c0-10-6-17-16-17h-200c-10 0-17 7-17 17v93l-5-5c-3-3-7-5-12-5s-8 2-11 5l-50 50c-7 7-7 17 0 24l183 183c3 3 7 5 12 5s8-2 11-5l184-183c3-4 5-7 5-12s-2-8-5-12z m238-88h-167c-10 0-16 7-16 17s6 16 16 16h167c10 0 17-6 17-16s-7-17-17-17z m-183 117c0 10 6 16 16 16h100c10 0 17-6 17-16s-7-17-17-17h-100c-10 0-16 7-16 17z m333-117h-83c-10 0-17 7-17 17s7 16 17 16h83c10 0 17-6 17-16s-7-17-17-17z m0 100h-150c-10 0-17 7-17 17s7 16 17 16h150c10 0 17-6 17-16s-7-17-17-17z m17 117c0-10-7-17-17-17h-317c-10 0-16 7-16 17s6 16 16 16h317c10 0 17-6 17-16z m-67 183c0-37-30-67-67-67s-66 30-66 67c0 32 21 57 50 65v-48c0-10 6-17 16-17s17 7 17 17v48c28-8 50-33 50-65z" horiz-adv-x="1000" />

<glyph glyph-name="real-estate-4" unicode="&#xe819;" d="M267 210l-84-83v-110h167v110l-83 83z m0 100l-160-160 26-27 122 122c3 3 7 5 12 5 1 0 3 0 3 0h2c1 0 3-2 5-3l121-122 27 27-158 158z m583 340c15-20 38-33 67-33 46 0 83 36 83 83s-37 83-83 83c-27 0-52-13-67-33h-833c-10 0-17-7-17-17v-66c0-10 7-17 17-17h166v-67h-116c-37 0-67-30-67-66v-534c0-36 30-66 67-66h800c36 0 66 30 66 66v534c0 36-30 66-66 66h-117v67h100z m-633 0h500v-67h-500v67l0 0z m-34-135v-48c0-10 7-17 17-17s17 7 17 17v48c28-7 50-33 50-65 0-37-30-67-67-67s-67 30-67 67c0 32 22 57 50 65z m279-377l-50-50c-4-3-7-5-12-5s-8 2-12 5l-5 5v-93c0-10-6-17-16-17h-200c-10 0-17 7-17 17v93l-5-5c-3-3-7-5-12-5s-8 2-11 5l-50 50c-7 7-7 17 0 24l183 183c3 3 7 5 12 5s8-2 11-5l184-183c3-4 5-7 5-12s-2-8-5-12z m348 159c8-5 10-15 5-24l-167-250c-3-5-8-6-13-6 0 0 0 0-2 0-5 0-10 1-13 6l-83 100c-7 7-5 19 1 24 7 6 19 5 24-2l68-83 155 231c7 7 17 9 25 4z m-10 153c0-37-30-67-67-67s-66 30-66 67c0 32 21 57 50 65v-48c0-10 6-17 16-17s17 7 17 17v48c28-8 50-33 50-65z" horiz-adv-x="1000" />

<glyph glyph-name="real-estate-5" unicode="&#xe81a;" d="M187 263c6 5 18 4 23-3 10-12 22-20 37-25 1 37-27 65-64 65-36 0-66-30-66-67 0-21 10-40 26-53 4-2 7-3 9-5 3-2 6-3 10-3 13-5 26-5 40 0 3 1 6 1 10 3 3 2 6 3 8 5 8 7 15 13 18 23-21 5-41 19-55 37-5 7-3 18 4 23z m30-138v15c-5-3-10-3-17-5-5-2-12-2-17-2s-11 0-16 2c0 0 0 0-2 0-5 2-12 2-17 5v-138l34-29 23 20-15 12c-3 3-7 7-7 12s2 10 5 13l22 22-22 21c-6 7-6 17 0 24l29 28z m115 188c-5 30-32 54-65 54-25 0-49-15-59-37 44-10 75-48 75-95 7 2 14 5 19 8l-2 15c-2 17 5 32 15 44 5 5 10 8 17 11z m108-43c-3 3-8 7-13 7l-72 6h-2c-5 0-10-1-15-6s-6-10-6-17l6-72c0-5 4-10 7-13l110-110 95 95-110 110z m-40-103c-5 0-8 1-12 5-6 6-6 16 0 23l34 33c6 7 16 7 23 0s7-16 0-23l-33-33c-4-4-7-5-12-5z m62-45c-4-4-7-5-12-5s-8 1-12 5c-6 6-6 16 0 23l34 33c6 7 16 7 23 0 7-6 7-16 0-23l-33-33z m388 561c15-20 38-33 67-33 46 0 83 37 83 83 0 47-37 84-83 84-27 0-52-14-67-34h-833c-10 0-17-6-17-16v-67c0-10 7-17 17-17h166v-66h-116c-37 0-67-30-67-67v-600c0-37 30-67 67-67h800c36 0 66 30 66 67v600c0 37-30 67-66 67h-117v66h100z m-633 0h500v-66h-500v66l0 0z m433-533c-10 0-17 7-17 17s7 16 17 16h150c10 0 17-6 17-16s-7-17-17-17h-150z m50-50c0-10-7-17-17-17h-33c-10 0-17 7-17 17s7 17 17 17h33c10 0 17-7 17-17z m-17 117h-33c-10 0-17 6-17 16s7 17 17 17h33c10 0 17-7 17-17s-7-16-17-16z m-500 331v-48c0-10 7-17 17-17s17 7 17 17v48c28-6 50-33 50-65 0-36-30-66-67-66s-67 30-67 66c0 32 22 57 50 65z m404-400l-119-118c-3-3-8-5-11-5s-9 2-12 5l-122 122c-10 10-15 21-16 35l-2 21c-8-3-18-6-27-6-5-17-15-30-28-42v-43c0-5-2-9-5-12l-22-22 22-21c7-7 7-17 0-24l-20-20 17-11c5-4 6-9 6-14s-1-10-5-13l-50-43c-1-2-6-4-10-4s-8 2-11 4l-50 43c-4 5-5 8-5 13v165c-20 19-34 45-34 75 0 52 39 94 89 100 13 40 51 67 95 67 50 0 91-37 98-85l65-7c13-1 25-6 35-16l122-122c5-5 5-15 0-22z m180-131h-117c-10 0-17 6-17 16s7 17 17 17h117c10 0 16-7 16-17 0-10-6-16-16-16z m83 0h-17c-10 0-16 6-16 16s6 17 16 17h17c10 0 17-7 17-17 0-10-7-16-17-16z m0 66h-100c-10 0-17 7-17 17s7 17 17 17h100c10 0 17-7 17-17s-7-17-17-17z m17 150c0-10-7-16-17-16h-100c-10 0-17 6-17 16s7 17 17 17h100c10 0 17-7 17-17z m-67 250c0-36-30-66-67-66s-66 30-66 66c0 32 21 57 50 65v-48c0-10 6-17 16-17s17 7 17 17v48c28-8 50-33 50-65z" horiz-adv-x="1000" />

<glyph glyph-name="search" unicode="&#xe81b;" d="M367 750c-138 0-250-112-250-250s112-250 250-250 250 112 250 250-112 250-250 250z m200-250c0-4-2-9-5-12l-50-50c-3-3-8-5-12-5h0c-4 0-9 2-12 5l-5 5v-76c0-9-7-17-16-17h-200c-10 0-17 8-17 17v76l-5-5c-3-3-7-5-12-5h0c-4 0-8 2-11 5l-50 50c-7 7-7 17 0 24l183 183c3 3 7 5 11 5h0c5 0 9-2 12-5l184-183c3-3 5-8 5-12z m-284-24v-93h167v93l-83 84-84-84z m-76 24l26-26 122 121c3 3 7 5 11 5h0c0 0 0 0 0 0 0 0 0 0 1 0h0c0 0 0 0 0 0 1 0 2 0 4-1 0 0 1 0 1 0 1 0 1 0 1 0 2-1 4-2 6-4l121-121 26 26-160 160-159-160z m771-522l-323 324c41 58 62 126 62 198 0 193-157 350-350 350s-350-157-350-350 157-350 350-350c54 0 109 13 157 38l331-333c3-3 7-5 12-5h0c4 0 8 2 11 5l100 100c7 6 7 17 0 23z m-611 239c-157 0-284 127-284 283s127 283 284 283 283-127 283-283-127-283-283-283z" horiz-adv-x="1000" />

<glyph glyph-name="skyscraper" unicode="&#xe81c;" d="M433 333c-10 0-16-6-16-16v-34c0-10 6-16 16-16s17 6 17 16v34c0 10-7 16-17 16z m0-100c-10 0-16-6-16-16v-34c0-10 6-16 16-16s17 6 17 16v34c0 10-7 16-17 16z m0-100c-10 0-16-6-16-16v-34c0-10 6-16 16-16s17 6 17 16v34c0 10-7 16-17 16z m0-100c-10 0-16-6-16-16v-34c0-10 6-16 16-16s17 6 17 16v34c0 10-7 16-17 16z m67 200c-10 0-17-6-17-16v-34c0-10 7-16 17-16s17 6 17 16v34c0 10-7 16-17 16z m0 100c-10 0-17-6-17-16v-34c0-10 7-16 17-16s17 6 17 16v34c0 10-7 16-17 16z m0-300c-10 0-17-6-17-16v-34c0-10 7-16 17-16s17 6 17 16v34c0 10-7 16-17 16z m0 100c-10 0-17-6-17-16v-34c0-10 7-16 17-16s17 6 17 16v34c0 10-7 16-17 16z m67 0c-10 0-17-6-17-16v-34c0-10 7-16 17-16s16 6 16 16v34c0 10-6 16-16 16z m0 100c-10 0-17-6-17-16v-34c0-10 7-16 17-16s16 6 16 16v34c0 10-6 16-16 16z m0-200c-10 0-17-6-17-16v-34c0-10 7-16 17-16s16 6 16 16v34c0 10-6 16-16 16z m0 300c-10 0-17-6-17-16v-34c0-10 7-16 17-16s16 6 16 16v34c0 10-6 16-16 16z m333 400h-50v50c0 10-7 17-17 17h-50v33c0 10-6 17-16 17s-17-7-17-17v-33h-50c-10 0-17-7-17-17v-50h-50c-10 0-16-6-16-16v-317h-34v50c0 10-6 17-16 17h-50v33c0 10-7 17-17 17s-17-7-17-17v-33h-50c-10 0-16-7-16-17v-50h-34v317c0 10-6 16-16 16h-50v50c0 10-7 17-17 17h-50v33c0 10-7 17-17 17s-16-7-16-17v-33h-50c-10 0-17-7-17-17v-50h-50c-10 0-17-6-17-16v-850c0-10 7-17 17-17h267 266 267c10 0 17 7 17 17v850c0 10-7 16-17 16z m-717-800c0-10-6-16-16-16s-17 6-17 16v17c0 10 7 17 17 17s16-7 16-17v-17z m0 84c0-10-6-17-16-17s-17 7-17 17v33c0 10 7 17 17 17s16-7 16-17v-33z m0 100c0-10-6-17-16-17s-17 7-17 17v33c0 10 7 17 17 17s16-7 16-17v-33z m0 100c0-10-6-17-16-17s-17 7-17 17v33c0 10 7 17 17 17s16-7 16-17v-33z m0 100c0-10-6-17-16-17s-17 7-17 17v33c0 10 7 17 17 17s16-7 16-17v-33z m0 100c0-10-6-17-16-17s-17 7-17 17v33c0 10 7 17 17 17s16-7 16-17v-33z m0 100c0-10-6-17-16-17s-17 7-17 17v33c0 10 7 17 17 17s16-7 16-17v-33z m0 100c0-10-6-17-16-17s-17 7-17 17v33c0 10 7 17 17 17s16-7 16-17v-33z m0 150h100v-34h-100v34z m67-834c0-10-7-16-17-16s-16 6-16 16v17c0 10 6 17 16 17s17-7 17-17v-17z m0 84c0-10-7-17-17-17s-16 7-16 17v33c0 10 6 17 16 17s17-7 17-17v-33z m0 100c0-10-7-17-17-17s-16 7-16 17v33c0 10 6 17 16 17s17-7 17-17v-33z m0 100c0-10-7-17-17-17s-16 7-16 17v33c0 10 6 17 16 17s17-7 17-17v-33z m0 100c0-10-7-17-17-17s-16 7-16 17v33c0 10 6 17 16 17s17-7 17-17v-33z m0 100c0-10-7-17-17-17s-16 7-16 17v33c0 10 6 17 16 17s17-7 17-17v-33z m0 100c0-10-7-17-17-17s-16 7-16 17v33c0 10 6 17 16 17s17-7 17-17v-33z m0 100c0-10-7-17-17-17s-16 7-16 17v33c0 10 6 17 16 17s17-7 17-17v-33z m67-684c0-10-7-16-17-16s-17 6-17 16v17c0 10 7 17 17 17s17-7 17-17v-17z m0 84c0-10-7-17-17-17s-17 7-17 17v33c0 10 7 17 17 17s17-7 17-17v-33z m0 100c0-10-7-17-17-17s-17 7-17 17v33c0 10 7 17 17 17s17-7 17-17v-33z m0 100c0-10-7-17-17-17s-17 7-17 17v33c0 10 7 17 17 17s17-7 17-17v-33z m0 100c0-10-7-17-17-17s-17 7-17 17v33c0 10 7 17 17 17s17-7 17-17v-33z m0 100c0-10-7-17-17-17s-17 7-17 17v33c0 10 7 17 17 17s17-7 17-17v-33z m0 100c0-10-7-17-17-17s-17 7-17 17v33c0 10 7 17 17 17s17-7 17-17v-33z m0 100c0-10-7-17-17-17s-17 7-17 17v33c0 10 7 17 17 17s17-7 17-17v-33z m300-734h-234v484h50 134 50l0-484 0 0z m100 50c0-10-7-16-17-16s-17 6-17 16v17c0 10 7 17 17 17s17-7 17-17v-17z m0 84c0-10-7-17-17-17s-17 7-17 17v33c0 10 7 17 17 17s17-7 17-17v-33z m0 100c0-10-7-17-17-17s-17 7-17 17v33c0 10 7 17 17 17s17-7 17-17v-33z m0 100c0-10-7-17-17-17s-17 7-17 17v33c0 10 7 17 17 17s17-7 17-17v-33z m0 100c0-10-7-17-17-17s-17 7-17 17v33c0 10 7 17 17 17s17-7 17-17v-33z m0 100c0-10-7-17-17-17s-17 7-17 17v33c0 10 7 17 17 17s17-7 17-17v-33z m0 100c0-10-7-17-17-17s-17 7-17 17v33c0 10 7 17 17 17s17-7 17-17v-33z m0 100c0-10-7-17-17-17s-17 7-17 17v33c0 10 7 17 17 17s17-7 17-17v-33z m0 150h100v-34h-100v34z m66-834c0-10-6-16-16-16s-17 6-17 16v17c0 10 7 17 17 17s16-7 16-17l0-17 0 0z m0 84c0-10-6-17-16-17s-17 7-17 17v33c0 10 7 17 17 17s16-7 16-17l0-33 0 0z m0 100c0-10-6-17-16-17s-17 7-17 17v33c0 10 7 17 17 17s16-7 16-17l0-33 0 0z m0 100c0-10-6-17-16-17s-17 7-17 17v33c0 10 7 17 17 17s16-7 16-17l0-33 0 0z m0 100c0-10-6-17-16-17s-17 7-17 17v33c0 10 7 17 17 17s16-7 16-17l0-33 0 0z m0 100c0-10-6-17-16-17s-17 7-17 17v33c0 10 7 17 17 17s16-7 16-17l0-33 0 0z m0 100c0-10-6-17-16-17s-17 7-17 17v33c0 10 7 17 17 17s16-7 16-17l0-33 0 0z m0 100c0-10-6-17-16-17s-17 7-17 17v33c0 10 7 17 17 17s16-7 16-17l0-33 0 0z m67-684c0-10-7-16-17-16s-16 6-16 16v17c0 10 6 17 16 17s17-7 17-17v-17z m0 84c0-10-7-17-17-17s-16 7-16 17v33c0 10 6 17 16 17s17-7 17-17v-33z m0 100c0-10-7-17-17-17s-16 7-16 17v33c0 10 6 17 16 17s17-7 17-17v-33z m0 100c0-10-7-17-17-17s-16 7-16 17v33c0 10 6 17 16 17s17-7 17-17v-33z m0 100c0-10-7-17-17-17s-16 7-16 17v33c0 10 6 17 16 17s17-7 17-17v-33z m0 100c0-10-7-17-17-17s-16 7-16 17v33c0 10 6 17 16 17s17-7 17-17v-33z m0 100c0-10-7-17-17-17s-16 7-16 17v33c0 10 6 17 16 17s17-7 17-17v-33z m0 100c0-10-7-17-17-17s-16 7-16 17v33c0 10 6 17 16 17s17-7 17-17v-33z" horiz-adv-x="1000" />

<glyph glyph-name="skyscraper-1" unicode="&#xe81d;" d="M967 417h-50v50c0 9-8 16-17 16h-50v34c0 9-7 16-17 16s-16-7-16-16v-34h-50c-9 0-17-7-17-16v-50h-33v116c0 10-8 17-17 17h-50v117c0 9-7 16-17 16h-50v84c0 9-7 16-16 16h-50v50c0 10-8 17-17 17s-17-7-17-17v-50h-50c-9 0-16-7-16-16v-84h-50c-9 0-17-7-17-16v-117h-50c-9 0-17-7-17-17v-50h-33v50c0 10-7 17-17 17h-50v33c0 10-7 17-16 17s-17-7-17-17v-33h-50c-9 0-17-7-17-17v-50h-50c-9 0-16-7-16-16v-600c0-10 7-17 16-17h267 400 267c9 0 16 7 16 17v533c0 9-7 17-16 17z m-684-534h-233v567h50 133 50v-567z m100 50c0-9-7-16-16-16s-17 7-17 16v534c0 9 8 16 17 16s16-7 16-16v-534z m67 0c0-9-7-16-17-16s-16 7-16 16v534c0 9 7 16 16 16s17-7 17-16v-534z m0 601c0-10-7-17-17-17s-16 7-16 17v66c0 9 7 17 16 17s17-8 17-17v-66z m67-601c0-9-8-16-17-16s-17 7-17 16v534c0 9 8 16 17 16s17-7 17-16v-534z m0 601c0-10-8-17-17-17s-17 7-17 17v66c0 9 8 17 17 17s17-8 17-17v-66z m0 133c0-9-8-17-17-17s-17 8-17 17v33c0 9 8 17 17 17s17-8 17-17v-33z m66-734c0-9-7-16-16-16s-17 7-17 16v534c0 9 8 16 17 16s16-7 16-16v-534z m0 601c0-10-7-17-16-17s-17 7-17 17v66c0 9 8 17 17 17s16-8 16-17v-66z m67-601c0-9-7-16-17-16s-16 7-16 16v534c0 9 7 16 16 16s17-7 17-16v-534z m300-50h-233v500h50 133 50v-500z m-850 534c-9 0-17-8-17-17s8-17 17-17h133c10 0 17 8 17 17s-7 17-17 17h-133z m133-67h-133c-9 0-17-7-17-17s8-16 17-16h133c10 0 17 7 17 16s-7 17-17 17z m0-67h-133c-9 0-17-7-17-16s8-17 17-17h133c10 0 17 8 17 17s-7 16-17 16z m0-66h-133c-9 0-17-8-17-17s8-17 17-17h133c10 0 17 8 17 17s-7 17-17 17z m0-67h-133c-9 0-17-7-17-17s8-16 17-16h133c10 0 17 7 17 16s-7 17-17 17z m0-67h-133c-9 0-17-7-17-16s8-17 17-17h133c10 0 17 8 17 17s-7 16-17 16z m0-66h-133c-9 0-17-8-17-17s8-17 17-17h133c10 0 17 8 17 17s-7 17-17 17z m0-67h-133c-9 0-17-8-17-17s8-16 17-16h133c10 0 17 7 17 16s-7 17-17 17z m534 400c-9 0-17-7-17-17s8-16 17-16h133c9 0 17 7 17 16s-8 17-17 17h-133z m133-67h-133c-10 0-17-7-17-16s7-17 17-17h133c9 0 17 8 17 17s-8 16-17 16z m0-66h-133c-10 0-17-8-17-17s7-17 17-17h133c9 0 17 8 17 17s-8 17-17 17z m0-67h-133c-10 0-17-7-17-17s7-16 17-16h133c9 0 17 7 17 16s-8 17-17 17z m0-67h-133c-10 0-17-7-17-16s7-17 17-17h133c9 0 17 8 17 17s-8 16-17 16z m0-66h-133c-10 0-17-8-17-17s7-17 17-17h133c9 0 17 8 17 17s-8 17-17 17z m0-67h-133c-10 0-17-8-17-17s7-16 17-16h133c9 0 17 7 17 16s-8 17-17 17z" horiz-adv-x="1000" />

<glyph glyph-name="skyscraper-2" unicode="&#xe81e;" d="M800 400c-10 0-17-7-17-17v-16c0-10 7-17 17-17s17 7 17 17v16c0 10-7 17-17 17z m0-65c-10 0-17-7-17-17v-25c0-10 7-16 17-16s17 6 17 16v25c0 9-7 17-17 17z m0-75c-10 0-17-7-17-17v-25c0-10 7-16 17-16s17 6 17 16v25c0 10-7 17-17 17z m0-220c-10 0-17-7-17-17v-25c0-10 7-16 17-16s17 6 17 16v25c0 10-7 17-17 17z m0 147c-10 0-17-7-17-17v-25c0-10 7-17 17-17s17 7 17 17v25c0 10-7 17-17 17z m0-74c-10 0-17-6-17-16v-25c0-10 7-17 17-17s17 7 17 17v25c0 10-7 16-17 16z m0-146c-10 0-17-7-17-17v-17c0-10 7-16 17-16s17 6 17 16v17c0 10-7 17-17 17z m100 433c-10 0-17-7-17-17v-16c0-10 7-17 17-17s17 7 17 17v16c0 10-7 17-17 17z m0-140c-10 0-17-7-17-17v-25c0-10 7-16 17-16s17 6 17 16v25c0 10-7 17-17 17z m0 75c-10 0-17-7-17-17v-25c0-10 7-16 17-16s17 6 17 16v25c0 9-7 17-17 17z m0-222c-10 0-17-6-17-16v-25c0-10 7-17 17-17s17 7 17 17v25c0 10-7 16-17 16z m0 74c-10 0-17-7-17-17v-25c0-10 7-17 17-17s17 7 17 17v25c0 10-7 17-17 17z m0-147c-10 0-17-7-17-17v-25c0-10 7-16 17-16s17 6 17 16v25c0 10-7 17-17 17z m0-73c-10 0-17-7-17-17v-17c0-10 7-16 17-16s17 6 17 16v17c0 10-7 17-17 17z m-800 266c-10 0-17-6-17-16v-34c0-10 7-16 17-16s17 6 17 16v34c0 10-7 16-17 16z m0 200c-10 0-17-6-17-16v-34c0-10 7-16 17-16s17 6 17 16v34c0 10-7 16-17 16z m0-300c-10 0-17-6-17-16v-34c0-10 7-16 17-16s17 6 17 16v34c0 10-7 16-17 16z m0-100c-10 0-17-6-17-16v-34c0-10 7-16 17-16s17 6 17 16v34c0 10-7 16-17 16z m0 300c-10 0-17-6-17-16v-34c0-10 7-16 17-16s17 6 17 16v34c0 10-7 16-17 16z m0 200c-10 0-17-6-17-16v-34c0-10 7-16 17-16s17 6 17 16v34c0 10-7 16-17 16z m100-100c-10 0-17-6-17-16v-34c0-10 7-16 17-16s17 6 17 16v34c0 10-7 16-17 16z m0 100c-10 0-17-6-17-16v-34c0-10 7-16 17-16s17 6 17 16v34c0 10-7 16-17 16z m0-200c-10 0-17-6-17-16v-34c0-10 7-16 17-16s17 6 17 16v34c0 10-7 16-17 16z m0-300c-10 0-17-6-17-16v-34c0-10 7-16 17-16s17 6 17 16v34c0 10-7 16-17 16z m0 200c-10 0-17-6-17-16v-34c0-10 7-16 17-16s17 6 17 16v34c0 10-7 16-17 16z m0-100c-10 0-17-6-17-16v-34c0-10 7-16 17-16s17 6 17 16v34c0 10-7 16-17 16z m783 317h-33v50c0 10-7 17-17 17h-83v50c0 10-7 16-17 16s-16-6-16-16v-50h-67v183c0 10-7 17-17 17h-33v50c0 10-7 16-17 16h-166v50c0 10-7 17-17 17s-17-7-17-17v-50h-166c-10 0-17-6-17-16v-50h-33c-10 0-17-7-17-17v-33h-67v50c0 10-6 16-16 16s-17-6-17-16v-50h-83c-10 0-17-7-17-17v-50h-33c-10 0-17-7-17-17v-716c0-5 2-9 5-12 3-3 7-5 12-5h248 2 466 250c10 0 17 7 17 17v566c0 10-7 17-17 17z m-733-567h-217v684h34 183v-684z m0 717h-167v33h167v-33z m117-683c0-10-7-17-17-17s-17 7-17 17v16c0 10 7 17 17 17s17-7 17-17v-16z m0 83c0-10-7-17-17-17s-17 7-17 17v33c0 10 7 17 17 17s17-7 17-17v-33z m0 100c0-10-7-17-17-17s-17 7-17 17v33c0 10 7 17 17 17s17-7 17-17v-33z m0 100c0-10-7-17-17-17s-17 7-17 17v33c0 10 7 17 17 17s17-7 17-17v-33z m0 100c0-10-7-17-17-17s-17 7-17 17v33c0 10 7 17 17 17s17-7 17-17v-33z m0 100c0-10-7-17-17-17s-17 7-17 17v33c0 10 7 17 17 17s17-7 17-17v-33z m0 100c0-10-7-17-17-17s-17 7-17 17v33c0 10 7 17 17 17s17-7 17-17v-33z m0 100c0-10-7-17-17-17s-17 7-17 17v33c0 10 7 17 17 17s17-7 17-17v-33z m100-683c0-10-7-17-17-17s-17 7-17 17v16c0 10 7 17 17 17s17-7 17-17v-16z m0 83c0-10-7-17-17-17s-17 7-17 17v33c0 10 7 17 17 17s17-7 17-17v-33z m0 100c0-10-7-17-17-17s-17 7-17 17v33c0 10 7 17 17 17s17-7 17-17v-33z m0 100c0-10-7-17-17-17s-17 7-17 17v33c0 10 7 17 17 17s17-7 17-17v-33z m0 100c0-10-7-17-17-17s-17 7-17 17v33c0 10 7 17 17 17s17-7 17-17v-33z m0 100c0-10-7-17-17-17s-17 7-17 17v33c0 10 7 17 17 17s17-7 17-17v-33z m0 100c0-10-7-17-17-17s-17 7-17 17v33c0 10 7 17 17 17s17-7 17-17v-33z m0 100c0-10-7-17-17-17s-17 7-17 17v33c0 10 7 17 17 17s17-7 17-17v-33z m100-683c0-10-7-17-17-17s-17 7-17 17v16c0 10 7 17 17 17s17-7 17-17v-16z m0 83c0-10-7-17-17-17s-17 7-17 17v33c0 10 7 17 17 17s17-7 17-17v-33z m0 100c0-10-7-17-17-17s-17 7-17 17v33c0 10 7 17 17 17s17-7 17-17v-33z m0 100c0-10-7-17-17-17s-17 7-17 17v33c0 10 7 17 17 17s17-7 17-17v-33z m0 100c0-10-7-17-17-17s-17 7-17 17v33c0 10 7 17 17 17s17-7 17-17v-33z m0 100c0-10-7-17-17-17s-17 7-17 17v33c0 10 7 17 17 17s17-7 17-17v-33z m0 100c0-10-7-17-17-17s-17 7-17 17v33c0 10 7 17 17 17s17-7 17-17v-33z m0 100c0-10-7-17-17-17s-17 7-17 17v33c0 10 7 17 17 17s17-7 17-17v-33z m100-683c0-10-7-17-17-17s-17 7-17 17v16c0 10 7 17 17 17s17-7 17-17v-16z m0 83c0-10-7-17-17-17s-17 7-17 17v33c0 10 7 17 17 17s17-7 17-17v-33z m0 100c0-10-7-17-17-17s-17 7-17 17v33c0 10 7 17 17 17s17-7 17-17v-33z m0 100c0-10-7-17-17-17s-17 7-17 17v33c0 10 7 17 17 17s17-7 17-17v-33z m0 100c0-10-7-17-17-17s-17 7-17 17v33c0 10 7 17 17 17s17-7 17-17v-33z m0 100c0-10-7-17-17-17s-17 7-17 17v33c0 10 7 17 17 17s17-7 17-17v-33z m0 100c0-10-7-17-17-17s-17 7-17 17v33c0 10 7 17 17 17s17-7 17-17v-33z m0 100c0-10-7-17-17-17s-17 7-17 17v33c0 10 7 17 17 17s17-7 17-17v-33z m83-117h167v-33h-167v33z m217-600h-217v534h183 34l0-534 0 0z" horiz-adv-x="1000" />

<glyph glyph-name="skyscraper-3" unicode="&#xe81f;" d="M83 383c-9 0-16-7-16-16v-34c0-9 7-16 16-16s17 7 17 16v34c0 9-7 16-17 16z m0 100c-9 0-16-7-16-16v-34c0-9 7-16 16-16s17 7 17 16v34c0 9-7 16-17 16z m0-300c-9 0-16-7-16-16v-34c0-9 7-16 16-16s17 7 17 16v34c0 9-7 16-17 16z m0 100c-9 0-16-7-16-16v-34c0-9 7-16 16-16s17 7 17 16v34c0 9-7 16-17 16z m0-300c-9 0-16-7-16-16v-34c0-9 7-16 16-16s17 7 17 16v34c0 9-7 16-17 16z m0 100c-9 0-16-7-16-16v-34c0-9 7-16 16-16s17 7 17 16v34c0 9-7 16-17 16z m84 300c-10 0-17-7-17-16v-34c0-9 7-16 17-16s16 7 16 16v34c0 9-7 16-16 16z m0-200c-10 0-17-7-17-16v-34c0-9 7-16 17-16s16 7 16 16v34c0 9-7 16-16 16z m0 100c-10 0-17-7-17-16v-34c0-9 7-16 17-16s16 7 16 16v34c0 9-7 16-16 16z m0-200c-10 0-17-7-17-16v-34c0-9 7-16 17-16s16 7 16 16v34c0 9-7 16-16 16z m0-100c-10 0-17-7-17-16v-34c0-9 7-16 17-16s16 7 16 16v34c0 9-7 16-16 16z m0 500c-10 0-17-7-17-16v-34c0-9 7-16 17-16s16 7 16 16v34c0 9-7 16-16 16z m400-283c-9 0-17-7-17-17v-33c0-9 8-17 17-17s16 8 16 17v33c0 10-7 17-16 17z m0 100c-9 0-17-7-17-17v-33c0-9 8-17 17-17s16 8 16 17v33c0 10-7 17-16 17z m0 200c-9 0-17-7-17-17v-33c0-9 8-17 17-17s16 8 16 17v33c0 10-7 17-16 17z m0-100c-9 0-17-7-17-17v-33c0-9 8-17 17-17s16 8 16 17v33c0 10-7 17-16 17z m0-300c-9 0-17-7-17-17v-33c0-9 8-17 17-17s16 8 16 17v33c0 10-7 17-16 17z m0-100c-9 0-17-8-17-17v-33c0-9 8-17 17-17s16 8 16 17v33c0 9-7 17-16 17z m66 100c-9 0-16-7-16-17v-33c0-9 7-17 16-17s17 8 17 17v33c0 10-7 17-17 17z m0-100c-9 0-16-8-16-17v-33c0-9 7-17 16-17s17 8 17 17v33c0 9-7 17-17 17z m0 400c-9 0-16-7-16-17v-33c0-9 7-17 16-17s17 8 17 17v33c0 10-7 17-17 17z m0-100c-9 0-16-7-16-17v-33c0-9 7-17 16-17s17 8 17 17v33c0 10-7 17-17 17z m0-100c-9 0-16-7-16-17v-33c0-9 7-17 16-17s17 8 17 17v33c0 10-7 17-17 17z m0 300c-9 0-16-7-16-17v-33c0-9 7-17 16-17s17 8 17 17v33c0 10-7 17-17 17z m67-200c-9 0-17-7-17-17v-33c0-9 8-17 17-17s17 8 17 17v33c0 10-8 17-17 17z m0 100c-9 0-17-7-17-17v-33c0-9 8-17 17-17s17 8 17 17v33c0 10-8 17-17 17z m0-400c-9 0-17-8-17-17v-33c0-9 8-17 17-17s17 8 17 17v33c0 9-8 17-17 17z m-17 483v-33c0-9 8-17 17-17s17 8 17 17v33c0 10-8 17-17 17s-17-7-17-17z m17-283c-9 0-17-7-17-17v-33c0-9 8-17 17-17s17 8 17 17v33c0 10-8 17-17 17z m0-100c-9 0-17-7-17-17v-33c0-9 8-17 17-17s17 8 17 17v33c0 10-8 17-17 17z m283 533h-33v50c0 10-7 17-17 17h-16v50c0 9-8 17-17 17s-17-8-17-17v-50h-16v50c0 9-8 17-17 17s-17-8-17-17v-50h-16c-9 0-17-7-17-17v-50h-33c-9 0-17-7-17-16v-50h-33v50c0 9-8 16-17 16h-50v50c0 10-7 17-17 17s-16-7-16-17v-50h-50c-9 0-17-7-17-16v-50h-33v150c0 9-8 16-17 16h-50v50c0 10-7 17-17 17h-50v33c0 10-7 17-16 17s-17-7-17-17v-33h-50c-9 0-17-7-17-17v-50h-50c-9 0-16-7-16-16v-167h-17v50c0 9-7 17-17 17h-16v50c0 9-8 16-17 16s-17-7-17-16v-50h-16v50c0 9-8 16-17 16s-17-7-17-16v-50h-16c-9 0-17-8-17-17v-50h-33c-9 0-17-7-17-17v-666c0-10 8-17 17-17h216 267 267 216c10 0 17 7 17 17v750c0 9-7 16-17 16z m-766-750h-184v634h34 116 34l0-634 0 0z m100 50c0-9-8-16-17-16s-17 7-17 16v17c0 9 8 17 17 17s17-8 17-17v-17z m0 84c0-9-8-17-17-17s-17 8-17 17v33c0 9 8 17 17 17s17-8 17-17v-33z m0 100c0-9-8-17-17-17s-17 8-17 17v33c0 9 8 17 17 17s17-8 17-17v-33z m0 100c0-9-8-17-17-17s-17 8-17 17v33c0 9 8 17 17 17s17-8 17-17v-33z m0 100c0-9-8-17-17-17s-17 8-17 17v33c0 9 8 17 17 17s17-8 17-17v-33z m0 100c0-9-8-17-17-17s-17 8-17 17v33c0 9 8 17 17 17s17-8 17-17v-33z m0 100c0-9-8-17-17-17s-17 8-17 17v33c0 9 8 17 17 17s17-8 17-17v-33z m0 100c0-9-8-17-17-17s-17 8-17 17v33c0 9 8 17 17 17s17-8 17-17v-33z m66-684c0-9-7-16-16-16s-17 7-17 16v17c0 9 8 17 17 17s16-8 16-17v-17z m0 84c0-9-7-17-16-17s-17 8-17 17v33c0 9 8 17 17 17s16-8 16-17v-33z m0 100c0-9-7-17-16-17s-17 8-17 17v33c0 9 8 17 17 17s16-8 16-17v-33z m0 100c0-9-7-17-16-17s-17 8-17 17v33c0 9 8 17 17 17s16-8 16-17v-33z m0 100c0-9-7-17-16-17s-17 8-17 17v33c0 9 8 17 17 17s16-8 16-17v-33z m0 100c0-9-7-17-16-17s-17 8-17 17v33c0 9 8 17 17 17s16-8 16-17v-33z m0 100c0-9-7-17-16-17s-17 8-17 17v33c0 9 8 17 17 17s16-8 16-17v-33z m0 100c0-9-7-17-16-17s-17 8-17 17v33c0 9 8 17 17 17s16-8 16-17v-33z m67-684c0-9-7-16-17-16s-16 7-16 16v17c0 9 7 17 16 17s17-8 17-17v-17z m0 84c0-9-7-17-17-17s-16 8-16 17v33c0 9 7 17 16 17s17-8 17-17v-33z m0 100c0-9-7-17-17-17s-16 8-16 17v33c0 9 7 17 16 17s17-8 17-17v-33z m0 100c0-9-7-17-17-17s-16 8-16 17v33c0 9 7 17 16 17s17-8 17-17v-33z m0 100c0-9-7-17-17-17s-16 8-16 17v33c0 9 7 17 16 17s17-8 17-17v-33z m0 100c0-9-7-17-17-17s-16 8-16 17v33c0 9 7 17 16 17s17-8 17-17v-33z m0 100c0-9-7-17-17-17s-16 8-16 17v33c0 9 7 17 16 17s17-8 17-17v-33z m0 100c0-9-7-17-17-17s-16 8-16 17v33c0 9 7 17 16 17s17-8 17-17v-33z m300-734h-233v650h50 133 50v-650z m100 50c0-9-7-16-17-16s-16 7-16 16v17c0 9 7 17 16 17s17-8 17-17v-17z m0 84c0-9-7-17-17-17s-16 8-16 17v33c0 9 7 17 16 17s17-8 17-17v-33z m0 100c0-9-7-17-17-17s-16 8-16 17v33c0 9 7 17 16 17s17-8 17-17v-33z m0 100c0-9-7-17-17-17s-16 8-16 17v33c0 9 7 17 16 17s17-8 17-17v-33z m0 100c0-9-7-17-17-17s-16 8-16 17v33c0 9 7 17 16 17s17-8 17-17v-33z m0 100c0-9-7-17-17-17s-16 8-16 17v33c0 9 7 17 16 17s17-8 17-17v-33z m0 100c0-9-7-17-17-17s-16 8-16 17v33c0 9 7 17 16 17s17-8 17-17v-33z m83-584c0-9-7-16-16-16s-17 7-17 16v17c0 9 8 17 17 17s16-8 16-17v-17z m0 84c0-9-7-17-16-17s-17 8-17 17v33c0 9 8 17 17 17s16-8 16-17v-33z m0 100c0-9-7-17-16-17s-17 8-17 17v33c0 9 8 17 17 17s16-8 16-17v-33z m0 100c0-9-7-17-16-17s-17 8-17 17v33c0 9 8 17 17 17s16-8 16-17v-33z m0 100c0-9-7-17-16-17s-17 8-17 17v33c0 9 8 17 17 17s16-8 16-17v-33z m0 100c0-9-7-17-16-17s-17 8-17 17v33c0 9 8 17 17 17s16-8 16-17v-33z m0 100c0-9-7-17-16-17s-17 8-17 17v33c0 9 8 17 17 17s16-8 16-17v-33z" horiz-adv-x="1000" />

<glyph glyph-name="apartment" unicode="&#xe820;" d="M550 283h50v-33h-50v33z m-150 267h50v-33h-50v33z m150-133h50v-34h-50v34z m-150 0h50v-34h-50v34z m150-267h50v-33h-50v33z m-150 533h50v-33h-50v33z m0-533h50v-33h-50v33z m150 533h50v-33h-50v33z m-150-400h50v-33h-50v33z m150 267h50v-33h-50v33z m283-167h50v-33h-50v33z m0-266h50v-34h-50v34z m0 133h50v-33h-50v33z m-716 0h50v-33h-50v33z m0 133h50v-33h-50v33z m0-266h50v-34h-50v34z m0 400h50v-34h-50v34z m883-17v67c0 10-7 16-17 16h-250c-10 0-16-6-16-16v-67c0-10 6-17 16-17v-500h-33v767c10 0 17 7 17 17v66c0 10-7 17-17 17h-400c-10 0-17-7-17-17v-66c0-10 7-17 17-17v-767h-33v634c10 0 16 6 16 16v67c0 10-6 17-16 17h-250c-10 0-17-7-17-17v-67c0-10 7-16 17-16v-634c-10 0-17-6-17-16v-100c0-10 7-17 17-17h966c10 0 17 7 17 17v100c0 10-7 16-17 16v500c10 0 17 7 17 17z m-800-433c0-10-7-17-17-17h-83c-10 0-17 7-17 17v66c0 10 7 17 17 17h83c10 0 17-7 17-17v-66z m0 133c0-10-7-17-17-17h-83c-10 0-17 7-17 17v67c0 10 7 16 17 16h83c10 0 17-6 17-16v-67z m0 133c0-10-7-16-17-16h-83c-10 0-17 6-17 16v67c0 10 7 17 17 17h83c10 0 17-7 17-17v-67z m0 134c0-10-7-17-17-17h-83c-10 0-17 7-17 17v66c0 10 7 17 17 17h83c10 0 17-7 17-17v-66z m50 183h-217v33h217v-33z m233-550c0-10-6-17-16-17h-84c-10 0-16 7-16 17v67c0 10 6 16 16 16h84c10 0 16-6 16-16v-67z m0 133c0-10-6-16-16-16h-84c-10 0-16 6-16 16v67c0 10 6 17 16 17h84c10 0 16-7 16-17v-67z m0 134c0-10-6-17-16-17h-84c-10 0-16 7-16 17v66c0 10 6 17 16 17h84c10 0 16-7 16-17v-66z m0 133c0-10-6-17-16-17h-84c-10 0-16 7-16 17v67c0 10 6 16 16 16h84c10 0 16-6 16-16v-67z m0 133c0-10-6-16-16-16h-84c-10 0-16 6-16 16v67c0 10 6 17 16 17h84c10 0 16-7 16-17v-67z m150-533c0-10-6-17-16-17h-84c-10 0-16 7-16 17v67c0 10 6 16 16 16h84c10 0 16-6 16-16v-67z m0 133c0-10-6-16-16-16h-84c-10 0-16 6-16 16v67c0 10 6 17 16 17h84c10 0 16-7 16-17v-67z m0 134c0-10-6-17-16-17h-84c-10 0-16 7-16 17v66c0 10 6 17 16 17h84c10 0 16-7 16-17v-66z m0 133c0-10-6-17-16-17h-84c-10 0-16 7-16 17v67c0 10 6 16 16 16h84c10 0 16-6 16-16v-67z m0 133c0-10-6-16-16-16h-84c-10 0-16 6-16 16v67c0 10 6 17 16 17h84c10 0 16-7 16-17v-67z m50 150h-366v34h366l0-34 0 0z m234-716c0-10-7-17-17-17h-83c-10 0-17 7-17 17v66c0 10 7 17 17 17h83c10 0 17-7 17-17v-66l0 0z m0 133c0-10-7-17-17-17h-83c-10 0-17 7-17 17v67c0 10 7 16 17 16h83c10 0 17-6 17-16v-67l0 0z m0 133c0-10-7-16-17-16h-83c-10 0-17 6-17 16v67c0 10 7 17 17 17h83c10 0 17-7 17-17v-67l0 0z m50 184h-217v33h217v-33l0 0z" horiz-adv-x="1000" />

<glyph glyph-name="apartment-1" unicode="&#xe821;" d="M983-117h-68c1 6 2 11 2 17 0 46-28 86-67 105v562c0 9-7 16-17 16h-366c-9 0-17-7-17-16v-519c-10 10-21 18-33 24v495c0 27 22 50 50 50h116v216c0 10-7 17-16 17h-450c-9 0-17-7-17-17v-950h-83c-9 0-17-7-17-16s8-17 17-17h100 50 400 0 327 89c10 0 17 7 17 17s-7 16-17 16z m-516 884c0 9 7 16 16 16 10 0 17-7 17-16v-34c0-9-7-16-17-16-9 0-16 7-16 16v34z m266-267c0 9 8 17 17 17 9 0 17-8 17-17v-33c0-9-8-17-17-17-9 0-17 8-17 17v33z m0-100c0 9 8 17 17 17 9 0 17-8 17-17v-33c0-9-8-17-17-17-9 0-17 8-17 17v33z m0-100c0 9 8 17 17 17 9 0 17-8 17-17v-33c0-9-8-17-17-17-9 0-17 8-17 17v33z m0-100c0 9 8 17 17 17 9 0 17-8 17-17v-33c0-9-8-17-17-17-9 0-17 8-17 17v33z m0-100c0 9 8 17 17 17 9 0 17-8 17-17v-33c0-9-8-17-17-17-9 0-17 8-17 17v33z m-100 400c0 9 8 17 17 17 9 0 17-8 17-17v-33c0-9-8-17-17-17-9 0-17 8-17 17v33z m0-100c0 9 8 17 17 17 9 0 17-8 17-17v-33c0-9-8-17-17-17-9 0-17 8-17 17v33z m0-100c0 9 8 17 17 17 9 0 17-8 17-17v-33c0-9-8-17-17-17-9 0-17 8-17 17v33z m0-100c0 9 8 17 17 17 9 0 17-8 17-17v-33c0-9-8-17-17-17-9 0-17 8-17 17v33z m0-100c0 9 8 17 17 17 9 0 17-8 17-17v-33c0-9-8-17-17-17-9 0-17 8-17 17v33z m-100 400c0 9 8 17 17 17 9 0 17-8 17-17v-33c0-9-8-17-17-17-9 0-17 8-17 17v33z m0-100c0 9 8 17 17 17 9 0 17-8 17-17v-33c0-9-8-17-17-17-9 0-17 8-17 17v33z m0-100c0 9 8 17 17 17 9 0 17-8 17-17v-33c0-9-8-17-17-17-9 0-17 8-17 17v33z m0-100c0 9 8 17 17 17 9 0 17-8 17-17v-33c0-9-8-17-17-17-9 0-17 8-17 17v33z m0-100c0 9 8 17 17 17 9 0 17-8 17-17v-33c0-9-8-17-17-17-9 0-17 8-17 17v33z m-166 667c0 9 7 16 16 16 10 0 17-7 17-16v-34c0-9-7-16-17-16-9 0-16 7-16 16v34z m0-100c0 9 7 16 16 16 10 0 17-7 17-16v-34c0-9-7-16-17-16-9 0-16 7-16 16v34z m0-100c0 9 7 16 16 16 10 0 17-7 17-16v-34c0-9-7-16-17-16-9 0-16 7-16 16v34z m0-100c0 9 7 16 16 16 10 0 17-7 17-16v-34c0-9-7-16-17-16-9 0-16 7-16 16v34z m0-100c0 9 7 16 16 16 10 0 17-7 17-16v-34c0-9-7-16-17-16-9 0-16 7-16 16v34z m0-100c0 9 7 16 16 16 10 0 17-7 17-16v-34c0-9-7-16-17-16-9 0-16 7-16 16v34z m0-100c0 9 7 16 16 16 10 0 17-7 17-16v-34c0-9-7-16-17-16-9 0-16 7-16 16v34z m-100 600c0 9 7 16 16 16 10 0 17-7 17-16v-34c0-9-7-16-17-16-9 0-16 7-16 16v34z m0-100c0 9 7 16 16 16 10 0 17-7 17-16v-34c0-9-7-16-17-16-9 0-16 7-16 16v34z m0-100c0 9 7 16 16 16 10 0 17-7 17-16v-34c0-9-7-16-17-16-9 0-16 7-16 16v34z m0-100c0 9 7 16 16 16 10 0 17-7 17-16v-34c0-9-7-16-17-16-9 0-16 7-16 16v34z m0-100c0 9 7 16 16 16 10 0 17-7 17-16v-34c0-9-7-16-17-16-9 0-16 7-16 16v34z m0-100c0 9 7 16 16 16 10 0 17-7 17-16v-34c0-9-7-16-17-16-9 0-16 7-16 16v34z m0-100c0 9 7 16 16 16 10 0 17-7 17-16v-34c0-9-7-16-17-16-9 0-16 7-16 16v34z m0-100c0 9 7 16 16 16 10 0 17-7 17-16v-5c-13-9-24-20-32-34-1 2-1 4-1 5l0 34 0 0z m-100 700c0 9 7 16 16 16 10 0 17-7 17-16v-34c0-9-7-16-17-16-9 0-16 7-16 16v34z m0-100c0 9 7 16 16 16 10 0 17-7 17-16v-34c0-9-7-16-17-16-9 0-16 7-16 16v34z m0-100c0 9 7 16 16 16 10 0 17-7 17-16v-34c0-9-7-16-17-16-9 0-16 7-16 16v34z m0-100c0 9 7 16 16 16 10 0 17-7 17-16v-34c0-9-7-16-17-16-9 0-16 7-16 16v34z m0-100c0 9 7 16 16 16 10 0 17-7 17-16v-34c0-9-7-16-17-16-9 0-16 7-16 16v34z m0-100c0 9 7 16 16 16 10 0 17-7 17-16v-34c0-9-7-16-17-16-9 0-16 7-16 16v34z m0-100c0 9 7 16 16 16 10 0 17-7 17-16v-34c0-9-7-16-17-16-9 0-16 7-16 16v34z m0-100c0 9 7 16 16 16 10 0 17-7 17-16v-34c0-9-7-16-17-16-9 0-16 7-16 16v34z m1-139c-1 2-1 3-1 5v34c0 9 7 16 16 16 10 0 17-7 17-16v-5c-13-9-24-20-32-34z m368 10c0 0 0 0 0 0-1-3-2-7-2-10 0 0 0 0 0-1 0-3-1-7-1-10 0-6 1-12 2-17 0-1 0-2 0-2 1-5 3-10 4-15 0 0 0 0 0 0h-354c0 0 0 0 0 0 0 1 0 1 0 1 1 5 3 10 5 14 0 2 1 3 2 5 1 3 3 6 5 9 1 1 2 3 3 4 2 3 4 5 6 7 2 2 3 3 4 5 3 2 5 4 7 5 2 2 4 3 6 4 2 2 5 3 8 4 2 1 3 2 5 3 3 1 7 2 10 3 2 0 3 1 5 1 5 1 10 2 16 2 9 0 16 7 16 17 0 46 38 83 84 83 5 0 9 0 14-1 3-1 6-2 9-3 1 0 3 0 4-1 4-1 8-3 11-5 0 0 1 0 1 0 4-2 7-5 11-7 17-13 29-32 32-54 1-7 6-12 13-14 6-1 13 1 17 7 0 0 1 0 1 1 0 0 0 0 0 0 3 4 7 8 11 11 0 0 0 0 0 1 4 3 8 5 12 8 1 0 1 0 2 0 4 2 8 4 13 5 0 0 0 0 1 0 5 1 9 2 14 2 5 0 9-1 13-1 0 0 1-1 2-1 4-1 8-2 12-3 0-1 0-1 1-1 2-1 4-2 5-3-15-14-26-32-30-53z m346-55h-306c-2 4-4 8-6 12 0 1 0 1 0 1-1 3-1 6-2 9 0 0 0 1 0 2-1 3-1 6-1 10 0 4 0 7 1 11 0 2 0 3 1 4 0 3 1 5 2 8 1 2 2 4 3 7 1 1 2 3 3 4 1 2 2 4 4 6 0 1 1 1 1 2 6 6 12 12 20 16 0 0 0 0 0 0 32 17 68 5 86-21 1-1 1-2 2-3 2-3 4-7 6-11 2-6 8-11 14-11 1 0 1 0 1 0 1 0 1 0 2 0 5 1 10 4 13 9 2 4 5 8 8 12 0 1 1 1 1 2 3 3 6 6 9 9 0 0 0 1 1 1 11 10 24 16 38 19 0 0 0 0 0 0 5 1 10 2 15 2 0 0 0 0 0 0 3 0 6 0 9 0 3-1 5-1 7-1 3-1 6-2 9-2 35-11 60-42 60-80 0-6 0-11-1-17z" horiz-adv-x="1000" />

<glyph glyph-name="apartment-2" unicode="&#xe822;" d="M567 617h-134c-9 0-16-8-16-17v-67c0-9 7-16 16-16h134c9 0 16 7 16 16v67c0 9-7 17-16 17z m200-100c9 0 16 7 16 16v67c0 9-7 17-16 17h-17v50c0 9-7 16-17 16h-50v67c0 9-7 17-16 17h-84v33c0 9-7 17-16 17s-17-8-17-17v-33h-33v66c0 10-8 17-17 17s-17-7-17-17v-66h-33v50c0 9-7 16-17 16s-16-7-16-16v-50h-84c-9 0-16-8-16-17v-67h-50c-9 0-17-7-17-16v-50h-17c-9 0-16-8-16-17v-67c0-9 7-16 16-16h17v-34h-17c-9 0-16-7-16-16v-67c0-9 7-17 16-17h17v-33h-17c-9 0-16-7-16-17v-66c0-9 7-17 16-17h17v-33h-17c-9 0-16-8-16-17v-67c0-9 7-16 16-16h17v-34h-17c-9 0-16-7-16-16v-67c0-9 7-17 16-17h17v-33h-17c-9 0-16-8-16-17v-66c0-10 7-17 16-17h134 66 134 66 134c9 0 16 7 16 17v66c0 9-7 17-16 17h-17v33h17c9 0 16 8 16 17v67c0 9-7 16-16 16h-17v34h17c9 0 16 7 16 16v67c0 9-7 17-16 17h-17v33h17c9 0 16 8 16 17v66c0 10-7 17-16 17h-17v33h17c9 0 16 8 16 17v67c0 9-7 16-16 16h-17v34l17 0 0 0z m-50 100h-84c-9 0-16-8-16-17v-67c0-9 7-16 16-16h84v-34h-84c-9 0-16-7-16-16v-67c0-9 7-17 16-17h84v-33h-84c-9 0-16-7-16-17v-66c0-9 7-17 16-17h84v-33h-84c-9 0-16-8-16-17v-67c0-9 7-16 16-16h84v-34h-84c-9 0-16-7-16-16v-67c0-9 7-17 16-17h84v-33h-84c-9 0-16-8-16-17v-50h-34v50c0 9-7 17-16 17h-134c-9 0-16-8-16-17v-50h-34v50c0 9-7 17-16 17h-84v33h84c9 0 16 8 16 17v67c0 9-7 16-16 16h-84v34h84c9 0 16 7 16 16v67c0 9-7 17-16 17h-84v33h84c9 0 16 8 16 17v66c0 10-7 17-16 17h-84v33h84c9 0 16 8 16 17v67c0 9-7 16-16 16h-84v34h84c9 0 16 7 16 16v67c0 9-7 17-16 17h-84v33h50 334 50v-33l0 0z m-150-134h-134c-9 0-16-7-16-16v-67c0-9 7-17 16-17h134c9 0 16 8 16 17v67c0 9-7 16-16 16z m0-133h-134c-9 0-16-7-16-17v-66c0-9 7-17 16-17h134c9 0 16 8 16 17v66c0 10-7 17-16 17z m0-133h-134c-9 0-16-8-16-17v-67c0-9 7-16 16-16h134c9 0 16 7 16 16v67c0 9-7 17-16 17z m0-134h-134c-9 0-16-7-16-16v-67c0-9 7-17 16-17h134c9 0 16 8 16 17v67c0 9-7 16-16 16z" horiz-adv-x="1000" />

<glyph glyph-name="apartment-3" unicode="&#xe823;" d="M983-117h-83v867h33c10 0 17 8 17 17v66c0 10-7 17-17 17h-866c-9 0-17-7-17-17v-66c0-9 8-17 17-17h33v-867h-83c-9 0-17-7-17-16s8-17 17-17h100 466 200 100 100c10 0 17 7 17 17s-7 16-17 16z m-516 150c0-9-8-16-17-16h-133-134c-9 0-16 7-16 16v134c0 9 7 16 16 16h134 133c9 0 17-7 17-16v-134z m0 267c0-9-8-17-17-17h-133-134c-9 0-16 8-16 17v133c0 10 7 17 16 17h134 133c9 0 17-7 17-17v-133z m0 233c0-9-8-16-17-16h-133-134c-9 0-16 7-16 16v134c0 9 7 16 16 16h134 133c9 0 17-7 17-16v-134z m333-650h-33v267h-67v-267h-33v267h-67v-267h-33v284c0 9 7 16 16 16h200c10 0 17-7 17-16l0-284 0 0z m33 417c0-9-7-17-16-17h-134-133c-9 0-17 8-17 17v133c0 10 8 17 17 17h133 134c9 0 16-7 16-17v-133z m0 233c0-9-7-16-16-16h-134-133c-9 0-17 7-17 16v134c0 9 8 16 17 16h133 134c9 0 16-7 16-16v-134z m-500 117h100v-100h-100v100z m0-500h100v-100h-100v100z m-133 0h100v-100h-100v100z m500 500h100v-100h-100v100z m-133 0h100v-100h-100v100z m-367 0h100v-100h-100v100z m133-233h100v-100h-100v100z m367 0h100v-100h-100v100z m-133 0h100v-100h-100v100z m-367 0h100v-100h-100v100z" horiz-adv-x="1000" />

<glyph glyph-name="apartment-4" unicode="&#xe824;" d="M833 583h-100c-10 0-16-6-16-16v-100c0-10 6-17 16-17h100c10 0 17 7 17 17v100c0 10-7 16-17 16z m0-166h-100c-10 0-16-7-16-17v-100c0-10 6-17 16-17h100c10 0 17 7 17 17v100c0 10-7 17-17 17z m0-167h-100c-10 0-16-7-16-17v-100c0-10 6-16 16-16h100c10 0 17 6 17 16v100c0 10-7 17-17 17z m0-167h-100c-10 0-16-6-16-16v-100c0-10 6-17 16-17h100c10 0 17 7 17 17v100c0 10-7 16-17 16z m-650 100h67v-66h-67v66z m-183 500h83v-66h-83v66z m183-666h67v-67h-67v67z m0 333h67v-67h-67v67z m0 333h67v-66h-67v66z m0-166h67v-67h-67v67z m167-500h67v-67h-67v67z m-350 500h83v-67h-83v67z m0-500h83v-67h-83v67z m0 333h83v-67h-83v67z m0-167h83v-66h-83v66z m350 167h67v-67h-67v67z m0 167h67v-67h-67v67z m0-334h67v-66h-67v66z m0 500h67v-66h-67v66z m633-33h-66v50c0 10-7 17-17 17h-233c-10 0-17-7-17-17v-50h-50v33h-83v-66h50v-34h-67c-10 0-17 7-17 17v100c0 10 7 17 17 17h100v50c0 10-7 16-17 16h-150v50c0 10-6 17-16 17h-234c-10 0-16-7-16-17v-50h-150c-10 0-17-6-17-16v-50h100c10 0 17-7 17-17v-100c0-10-7-17-17-17h-100v-33h100c10 0 17-7 17-17v-100c0-10-7-16-17-16h-100v-34h100c10 0 17-6 17-16v-100c0-10-7-17-17-17h-100v-33h100c10 0 17-7 17-17v-100c0-10-7-17-17-17h-100v-33h100c10 0 17-7 17-17v-100c0-10-7-16-17-16h-100v-50c0-10 7-17 17-17h566 400c10 0 17 7 17 17v100 100 66 100 67 100 67 100 66c0 10-7 17-17 17z m-783 167h200v-34h-200v34z m83-884c0-10-6-16-16-16h-100c-10 0-17 6-17 16v100c0 10 7 17 17 17h100c10 0 16-7 16-17v-100z m0 167c0-10-6-17-16-17h-100c-10 0-17 7-17 17v100c0 10 7 17 17 17h100c10 0 16-7 16-17v-100z m0 167c0-10-6-17-16-17h-100c-10 0-17 7-17 17v100c0 10 7 16 17 16h100c10 0 16-6 16-16v-100z m0 166c0-10-6-16-16-16h-100c-10 0-17 6-17 16v100c0 10 7 17 17 17h100c10 0 16-7 16-17v-100z m0 167c0-10-6-17-16-17h-100c-10 0-17 7-17 17v100c0 10 7 17 17 17h100c10 0 16-7 16-17v-100z m167-667c0-10-7-16-17-16h-100c-10 0-16 6-16 16v100c0 10 6 17 16 17h100c10 0 17-7 17-17v-100z m0 167c0-10-7-17-17-17h-100c-10 0-16 7-16 17v100c0 10 6 17 16 17h100c10 0 17-7 17-17v-100z m0 167c0-10-7-17-17-17h-100c-10 0-16 7-16 17v100c0 10 6 16 16 16h100c10 0 17-6 17-16v-100z m0 166c0-10-7-16-17-16h-100c-10 0-16 6-16 16v100c0 10 6 17 16 17h100c10 0 17-7 17-17v-100z m0 167c0-10-7-17-17-17h-100c-10 0-16 7-16 17v100c0 10 6 17 16 17h100c10 0 17-7 17-17v-100z m117-583h-50v-67h50v-33h-67c-10 0-17 6-17 16v100c0 10 7 17 17 17h67v-33z m0 166h-50v-66h50v-34h-67c-10 0-17 7-17 17v100c0 10 7 17 17 17h67v-34z m0 167h-50v-67h50v-33h-67c-10 0-17 7-17 17v100c0 10 7 16 17 16h67v-33z m0 167h-50v-67h50v-33h-67c-10 0-17 6-17 16v100c0 10 7 17 17 17h67v-33z m400 66h-67c-10 0-17-6-17-16v-100c0-10 7-17 17-17h67v-33h-67c-10 0-17-7-17-17v-100c0-10 7-17 17-17h67v-33h-67c-10 0-17-7-17-17v-100c0-10 7-16 17-16h67v-34h-67c-10 0-17-6-17-16v-100c0-10 7-17 17-17h67v-67h-367v50 17h67c10 0 16 7 16 17v100c0 10-6 16-16 16h-67v17 17h67c10 0 16 6 16 16v100c0 10-6 17-16 17h-67v17 16h67c10 0 16 7 16 17v100c0 10-6 17-16 17h-67v16 17h67c10 0 16 7 16 17v100c0 10-6 16-16 16h-67v34h67 233 67v-34l0 0z" horiz-adv-x="1000" />

<glyph glyph-name="apartment-5" unicode="&#xe825;" d="M1000 637l-12 46h-188c-9 0-17 8-17 17s8 17 17 17h180l-9 33h-221c-9 0-17 8-17 17s8 16 17 16h213l-13 54c-2 8-9 13-17 13h-850c-7 0-13-5-15-11l-19-56h218c9 0 16-7 16-16s-7-17-16-17h-229l-11-33h190c9 0 16-8 16-17s-7-17-16-17h-201l-15-44c-2-5-1-11 2-15 3-5 8-7 14-7h66v-734h-16c-9 0-17-7-17-16s8-17 17-17h33 283 34 66 34 66 34 283 33c10 0 17 7 17 17s-7 16-17 16h-16v734h66c6 0 10 2 14 6 3 4 4 9 3 14z m-683-670c0-10-8-17-17-17h-133c-9 0-17 7-17 17v100c0 9 8 16 17 16h133c9 0 17-7 17-16v-100l0 0z m0 166c0-9-8-16-17-16h-133c-9 0-17 7-17 16v100c0 10 8 17 17 17h133c9 0 17-7 17-17v-100l0 0z m0 167c0-9-8-17-17-17h-133c-9 0-17 8-17 17v100c0 9 8 17 17 17h133c9 0 17-8 17-17v-100l0 0z m0 167c0-9-8-17-17-17h-133c-9 0-17 8-17 17v100c0 9 8 16 17 16h133c9 0 17-7 17-16v-100l0 0z m100 100c0 9 7 16 16 16h134c9 0 16-7 16-16v-100c0-9-7-17-16-17h-134c-9 0-16 8-16 17v100z m0-167c0 9 7 17 16 17h134c9 0 16-8 16-17v-100c0-9-7-17-16-17h-134c-9 0-16 8-16 17v100z m0-167c0 10 7 17 16 17h134c9 0 16-7 16-17v-100c0-9-7-16-16-16h-134c-9 0-16 7-16 16v100z m200-350h-34v167h-66v-167h-34v167h-66v-167h-34v184c0 9 8 16 17 16h100 100c9 0 17-7 17-16l0-184 0 0z m233 84c0-10-7-17-17-17h-133c-9 0-17 7-17 17v100c0 9 8 16 17 16h133c10 0 17-7 17-16v-100z m0 166c0-9-7-16-17-16h-133c-9 0-17 7-17 16v100c0 10 8 17 17 17h133c10 0 17-7 17-17v-100z m0 167c0-9-7-17-17-17h-133c-9 0-17 8-17 17v100c0 9 8 17 17 17h133c10 0 17-8 17-17v-100z m0 167c0-9-7-17-17-17h-133c-9 0-17 8-17 17v100c0 9 8 16 17 16h133c10 0 17-7 17-16v-100z m-400-250h100v-67h-100v67z m-267 333h100v-67h-100v67z m0-333h100v-67h-100v67z m0 166h100v-66h-100v66z m0-333h100v-67h-100v67z m267 500h100v-67h-100v67z m267 0h100v-67h-100v67z m0-500h100v-67h-100v67z m0 333h100v-66h-100v66z m-267 0h100v-66h-100v66z m267-166h100v-67h-100v67z" horiz-adv-x="1000" />

<glyph glyph-name="apartment-6" unicode="&#xe826;" d="M942 450c32 0 58 26 58 58 0 33-26 59-58 59h-9v183h17c28 0 50 22 50 50s-22 50-50 50h-900c-28 0-50-22-50-50s22-50 50-50h17v-183h-9c-32 0-58-26-58-59 0-32 26-58 58-58h9v-200h-9c-32 0-58-26-58-58 0-32 26-59 58-59h9v-266c0-10 7-17 16-17h317v217c0 9 8 16 17 16h166c10 0 17-7 17-16v-217h317c9 0 16 7 16 17v266h9c32 0 58 27 58 59 0 32-26 58-58 58h-9v200h9z m-892 333c-9 0-17 8-17 17s8 17 17 17h900c9 0 17-8 17-17s-8-17-17-17h-33-834-33z m700-116c-37 0-67-30-67-67v-33h-33v33c0 55 45 100 100 100s100-45 100-100v-33h-33v33c0 37-30 67-67 67z m-250 0c-37 0-67-30-67-67v-33h-33v33c0 55 45 100 100 100s100-45 100-100v-33h-33v33c0 37-30 67-67 67z m-250 0c-37 0-67-30-67-67v-33h-33v33c0 55 45 100 100 100s100-45 100-100v-33h-33v33c0 37-30 67-67 67z m100-700c0-10-7-17-17-17h-166c-9 0-17 7-17 17v100c0 9 8 16 17 16h166c10 0 17-7 17-16l0-100 0 0z m500 0c0-10-7-17-17-17h-166c-9 0-17 7-17 17v100c0 9 8 16 17 16h166c10 0 17-7 17-16v-100z m92 250c14 0 25-11 25-25s-11-25-25-25h-25-834-25c-13 0-25 11-25 25s12 25 25 25h25 84 166 84 166 84 166 84 25z m-692 133c-37 0-67-30-67-67v-33h-33v33c0 56 45 100 100 100s100-44 100-100v-33h-33v33c0 37-30 67-67 67z m250 0c-37 0-67-30-67-67v-33h-33v33c0 56 45 100 100 100s100-44 100-100v-33h-33v33c0 37-30 67-67 67z m250 0c-37 0-67-30-67-67v-33h-33v33c0 56 45 100 100 100s100-44 100-100v-33h-33v33c0 37-30 67-67 67z m167 133h-834-25c-13 0-25 12-25 25s12 25 25 25h25 84 166 84 166 84 166 84 25c14 0 25-11 25-25s-11-25-25-25h-25z m-734-433h134v-67h-134v67z m250 0h134v-200h-134v200z m250 0h134v-67h-134v67z" horiz-adv-x="1000" />

<glyph glyph-name="apartment-7" unicode="&#xe827;" d="M983-117h-83v867h33c10 0 17 8 17 17v66c0 10-7 17-17 17h-866c-9 0-17-7-17-17v-66c0-9 8-17 17-17h33v-867h-83c-9 0-17-7-17-16s8-17 17-17h100 283 200 283 100c10 0 17 7 17 17s-7 16-17 16z m-816 784c0 9 7 16 16 16h134 133c9 0 17-7 17-16v-134c0-9-8-16-17-16h-133-134c-9 0-16 7-16 16l0 134 0 0z m0-234c0 10 7 17 16 17h134 133c9 0 17-7 17-17v-133c0-9-8-17-17-17h-133-134c-9 0-16 8-16 17l0 133 0 0z m183-400c0-9-7-16-17-16h-150c-9 0-16 7-16 16v134c0 9 7 16 16 16h150c10 0 17-7 17-16v-134z m267-150h-34v267h-66v-267h-34v267h-66v-267h-34v284c0 9 8 16 17 16h200c9 0 17-7 17-16l0-284 0 0z m216 150c0-9-7-16-16-16h-150c-9 0-17 7-17 16v134c0 9 8 16 17 16h150c9 0 16-7 16-16v-134l0 0z m0 267c0-9-7-17-16-17h-134-133c-9 0-17 8-17 17v133c0 10 8 17 17 17h133 134c9 0 16-7 16-17v-133z m0 233c0-9-7-16-16-16h-134-133c-9 0-17 7-17 16v134c0 9 8 16 17 16h133 134c9 0 16-7 16-16v-134z m-150-383h117v-100h-117v100z m-483 0h117v-100h-117v100z m0 500h100v-100h-100v100z m0-233h100v-100h-100v100z m133 0h100v-100h-100v100z m0 233h100v-100h-100v100z m234 0h100v-100h-100v100z m133 0h100v-100h-100v100z m0-233h100v-100h-100v100z m-133 0h100v-100h-100v100z" horiz-adv-x="1000" />

<glyph glyph-name="appartment" unicode="&#xe828;" d="M933 303v214h50c6 0 11 2 14 7 3 5 4 10 2 16l-67 166c-2 7-8 11-15 11h-17v64c0 38-31 69-69 69h-14v-83c0-9-8-17-17-17h-100c-9 0-17 8-17 17v83h-33v-83c0-9-7-17-17-17h-100c-9 0-16 8-16 17v83h-34v-83c0-9-7-17-16-17h-100c-9 0-17 8-17 17v83h-33v-83c0-9-8-17-17-17h-100c-9 0-17 8-17 17v83h-14c-38 0-69-31-69-69v-64h-17c-6 0-13-4-15-11l-67-166c-2-6-1-11 2-16 3-5 8-7 14-7h50v-214l-66-163c-2-6-1-11 2-16 3-5 8-7 14-7h50v-250c0-10 7-17 16-17h317v217c0 9 8 16 17 16h166c10 0 17-7 17-16v-217h317c9 0 16 7 16 17v250h50c6 0 11 2 14 7 3 5 4 10 2 16l-66 163z m-892 247l48 120c12-31 42-53 78-53 27 0 51 13 66 33 16-20 40-33 67-33 27 0 51 13 67 33 15-20 39-33 66-33 28 0 52 13 67 33 15-20 39-33 67-33 27 0 51 13 66 33 16-20 40-33 67-33s51 13 67 33c15-20 39-33 66-33 36 0 66 22 78 53l48-120h-42-834-42z m809-83v-100c0-9-7-17-17-17h-166c-9 0-17 8-17 17v100c0 9 8 16 17 16h166c10 0 17-7 17-16z m-250 0v-100c0-9-7-17-17-17h-166c-9 0-17 8-17 17v100c0 9 8 16 17 16h166c10 0 17-7 17-16z m-250 0v-100c0-9-7-17-17-17h-166c-9 0-17 8-17 17v100c0 9 8 16 17 16h166c10 0 17-7 17-16z m0-500c0-10-7-17-17-17h-166c-9 0-17 7-17 17v100c0 9 8 16 17 16h166c10 0 17-7 17-16l0-100 0 0z m500 0c0-10-7-17-17-17h-166c-9 0-17 7-17 17v100c0 9 8 16 17 16h166c10 0 17-7 17-16v-100z m67 183h-834-42l48 120c12-31 42-53 78-53 27 0 51 13 66 33 16-20 40-33 67-33 27 0 51 13 67 33 15-20 39-33 66-33 28 0 52 13 67 33 15-20 39-33 67-33 27 0 51 13 66 33 16-20 40-33 67-33s51 13 67 33c15-20 39-33 66-33 36 0 66 22 78 53l48-120h-42z m-484-100h134v-200h-134v200z m-250 0h134v-67h-134v67z m500 0h134v-67h-134v67z m-250 400h134v-67h-134v67z m-250 0h134v-67h-134v67z m500 0h134v-67h-134v67z m-133 400h67v-67h-67v67z m-167 0h67v-67h-67v67z m334 0h66v-67h-66v67z m-500 0h66v-67h-66v67z" horiz-adv-x="1000" />

<glyph glyph-name="berth-bed" unicode="&#xe829;" d="M345 348h516v-157h-516v157z m-208-77h146v-80h-146v80z m208 425h516v-158h-516v158z m-208-78h146v-80h-146v80z m783-1v-133h-840v283h-80v-341-152-341h80v129h840v-129h80v170 40 300 41 133h-80v0z m-840-474v131 129h840v-260h-840z" horiz-adv-x="1000" />

<glyph glyph-name="bowling-ball-and-two-bowls" unicode="&#xe82a;" d="M92 553c17-2 36-4 56-4 20 0 39 2 56 4-6 39-4 80 3 92 11 20 39 144-59 144-98 0-70-124-59-144 7-12 9-53 3-92z m171-133c-15 31-30 57-41 75-1 2-2 4-3 6-23-4-46-6-71-6-25 0-48 2-71 6-1-2-2-4-3-6-24-41-72-115-74-219-2-103 54-365 54-365h94 94c0 0 8 41 19 97-49 54-79 126-79 205 0 80 30 152 81 207z m737-144c-2 104-50 178-74 219-1 2-2 4-3 6-22-4-46-6-71-6-24 0-48 2-71 6-1-2-2-4-3-6-11-18-26-44-40-75 50-55 80-127 80-207 0-79-30-151-79-205 11-56 20-97 20-97h93 94c0 0 56 262 54 365z m-204 277c17-2 36-4 56-4 20 0 39 2 56 4-6 39-4 80 3 92 11 20 39 144-59 144-98 0-70-124-59-144 7-12 9-53 3-92z m-296-76c-145 0-264-118-264-264 0-145 119-264 264-264 146 0 264 119 264 264 0 146-118 264-264 264z m-48-198c14 0 25-11 25-25 0-13-11-25-25-25-14 0-25 12-25 25s11 25 25 25z m23 54c0 14 11 25 25 25 14 0 25-11 25-25 0-13-11-24-25-24-14 0-25 11-25 24z m73-104c-13 0-25 12-25 25 0 14 12 25 25 25s25-11 25-25c0-13-11-25-25-25z" horiz-adv-x="1000" />

<glyph glyph-name="cleaning-room" unicode="&#xe82b;" d="M747 386v13 12c0 45-36 81-80 81h-121v358h-91v-358h-122c-44 0-80-36-80-81v-12-13-134h494v134z m0-204h-494l-13-332h520l-13 332z" horiz-adv-x="1000" />

<glyph glyph-name="credit-card-payment" unicode="&#xe82c;" d="M467 464c3-11 4-22 4-33v-33-87h100v87 365 87h-191v-299c42-12 75-45 87-87z m30 329c13 0 24-11 24-25 0-2 0-3 0-5-2-11-12-20-24-20-12 0-22 9-24 20-1 2-1 3-1 5 0 14 11 25 25 25z m161 57h77v-539h-77v539z m3-604h-173c13-18 27-41 40-67 19-38 34-84 34-131h-62c0 55-29 114-57 154-13 19-25 34-34 44v185c0 34-28 62-62 62-35 0-62-28-62-62v-185c0 0-13-38-18-101-1-15-2-31-2-48 0-91 46-148 46-247 27 0 292 0 292 0s0 31 0 66 23 80 40 114c22 50 18 113 18 113v103z" horiz-adv-x="1000" />

<glyph glyph-name="door-hanger" unicode="&#xe82d;" d="M731 620c0 127-103 230-230 230-127 0-231-103-231-230h87c0 79 64 143 144 143 79 0 143-64 143-143h0l-375-219v-551h462v770h0z m-125-660h-212v212h212v-212z" horiz-adv-x="1000" />

<glyph glyph-name="double-king-size-bed" unicode="&#xe82e;" d="M998 214l-110 175v320l-45 45h-686l-45-45v-320l-110-175h996z m-200 450v-223c-57 15-157 33-298 33-141 0-241-18-298-33v223h596z m-798-505v-89h104v-124h90v124h612v-124h90v124h104v89h-1000z m464 362v52c0 31-45 56-101 56s-100-25-100-56v-79c0 0 59 15 100 19 36 4 101 8 101 8z m273-27v79c0 31-45 56-100 56s-101-25-101-56v-52c0 0 65-4 101-8 41-4 100-19 100-19z" horiz-adv-x="1000" />

<glyph glyph-name="fire-extinguisher-signal" unicode="&#xe82f;" d="M831 762c-38 28-91 41-158 41h-214v47h-88v-39l-266 35v-173l266 35v-52c-89-20-156-99-157-193h0v-2-611h401v611 2h0c-1 94-67 173-156 193v59h214c134 0 134-63 134-87 0-51-16-76-41-112-34-52-76-116-76-267v-238h88v238c0 125 31 172 62 218 27 41 55 83 55 161 0 58-22 104-64 134z m-538-461v147h10 78v-95-90-252h-79-9v290z" horiz-adv-x="1000" />

<glyph glyph-name="food-delivery" unicode="&#xe830;" d="M139 104h575v-90h-575v90z m722 484h-147-115-460v-439h575v350h147v89z m-667-631c30 0 54-24 54-54 0-29-24-53-54-53-29 0-53 24-53 53 0 30 24 54 53 54z m465 0c30 0 54-24 54-54 0-29-24-53-54-53-29 0-53 24-53 53 0 30 24 54 53 54z m-40 713h-33c-4 77-63 140-139 150 1 2 2 5 2 8 0 12-10 22-22 22-13 0-23-10-23-22 0-3 1-6 2-8-76-10-135-73-139-150h-33v-46h385l0 46 0 0z" horiz-adv-x="1000" />

<glyph glyph-name="frontal-taxi" unicode="&#xe831;" d="M900 386l-27 307h-746l-27-307h-100v-382h109v-131h95v131h592v-131h95v131h109v382h-100z m-774-191c0 40 33 73 73 73 41 0 73-33 73-73 0-41-32-73-73-73-40 0-73 32-73 73z m675-73c-41 0-73 32-73 73 0 40 32 73 73 73s73-33 73-73c0-41-33-73-73-73z m-587 476h572l19-212h-610l19 212z m140 229h292v-94h-292v94z" horiz-adv-x="1000" />

<glyph glyph-name="golf-court" unicode="&#xe832;" d="M829 134c-77 16-175 25-280 27v317 282 57l-465-169 367-134v-353c-105-2-203-11-279-27-80-16-172-43-172-112 0-69 92-96 172-112 88-17 204-27 328-27s240 10 329 27c79 16 171 43 171 112 0 69-92 96-171 112z" horiz-adv-x="1000" />

<glyph glyph-name="holiday-suitcase" unicode="&#xe833;" d="M706 788h-412v-211h-62v-89-487-89h536v89 487 89h-62v211z m-153-444l-99-99-154 154v89 10h99l10-10 144-144z m-170 233v122h234v-122h-234z m-25-118c10 0 19-8 19-19 0-11-9-19-19-19-11 0-19 8-19 19 0 11 8 19 19 19z m499 118v-89-487-89h143v665h-143z m-857-665h142v89 487 89h-142v-665z" horiz-adv-x="1000" />

<glyph glyph-name="home-telephone" unicode="&#xe834;" d="M304 619h392v-138c0 0 210 0 297 0 0 221-297 227-297 227h-392c0 0-297-6-297-227 87 0 297 0 297 0v138l0 0z m680-201h-340v144h-89v-144h-103v144h-89v-144h-347l-16-426h1000l-16 426z m-375-236v46h92v-46h-92z m92-43v-47h-92v47h92z m-92 132v47h92v-47h-92z m-155-89v46h92v-46h-92z m92-43v-47h-92v47h92z m-92 132v47h92v-47h-92z m-155 0v47h92v-47h-92z m92-43v-46h-92v46h92z m-92-89h92v-47h-92v47z" horiz-adv-x="1000" />

<glyph glyph-name="hot-coffee-mug" unicode="&#xe835;" d="M761 467h-83-630l65-466h584l12 86c76 20 139 76 183 166 41 79 52 159 53 162l7 52h-191v0z m-38-276l26 185h94c-16-57-51-144-120-185z m-604-250h572v-91h-572v91z m84 768c3-11 7-22 11-32 4-10 8-19 12-29l1-1 0-1 1-2c1-2 2-3 2-5 1-1 2-2 2-4 1-1 1-2 2-4 2-5 3-9 4-15 2-5 2-11 2-18 0-6-1-12-3-18 0-3-1-7-2-9-1-3-1-6-2-8-2-5-3-9-4-12-1-2-1-3-1-3-1-1-1-2-1-2s1 0 2 0c0 0 2 0 3 0 3 0 8 0 14 1 3 0 6 1 9 2 4 1 7 2 11 4 8 3 16 8 24 16 8 7 15 18 20 30 6 13 9 27 8 42 0 4 0 8 0 11-1 4-1 8-2 11-1 4-2 7-3 11 0 2-1 3-2 5l-1 2 0 2c-4 11-9 21-13 30-10 20-20 37-27 51-4 7-7 13-9 18-3 6-4 12-5 18-1 5-1 12 0 18 1 3 1 6 2 8 0 3 1 6 2 8 1 5 2 9 3 12 1 3 1 4 1 4s-1 0-4-1c-3 0-7-1-12-3-3-1-6-2-9-4-3-1-6-3-9-6-7-4-14-11-20-20-7-9-11-21-14-34-2-12-2-26-1-38 2-12 5-24 8-35z m148 0c3-11 7-22 11-32 3-10 8-19 12-29l0-1 1-1 1-2c1-2 1-3 2-5 1-1 1-2 2-4 0-1 1-2 1-4 2-5 4-9 5-15 1-5 2-11 2-18-1-6-2-12-3-18-1-3-1-7-2-9-1-3-2-6-2-8-2-5-3-9-4-12-1-2-1-3-2-3 0-1 0-2 0-2s0 0 1 0c1 0 2 0 4 0 3 0 8 0 14 1 2 0 6 1 9 2 3 1 7 2 11 4 7 3 15 8 23 16 8 7 16 18 21 30 6 13 9 27 8 42 0 4 0 8-1 11 0 4-1 8-1 11-1 4-2 7-3 11-1 2-1 3-2 5l-1 2-1 2c-4 11-8 21-13 30-9 20-19 37-26 51-4 7-7 13-9 18-3 6-5 12-5 18-1 5-1 12 0 18 0 3 1 6 1 8 1 3 2 6 2 8 2 5 3 9 4 12 1 3 1 4 1 4s-2 0-4-1c-3 0-8-1-13-3-2-1-5-2-8-4-3-1-6-3-10-6-6-4-13-11-20-20-6-9-11-21-13-34-2-12-2-26-1-38 2-12 4-24 8-35z m147 0c3-11 7-22 11-32 4-10 8-19 12-29l1-1 1-1 1-2c1-2 1-3 2-5 0-1 1-2 2-4 0-1 1-2 1-4 2-5 4-9 5-15 1-5 2-11 1-18 0-6-1-12-2-18-1-3-2-7-2-9-1-3-2-6-3-8-1-5-3-9-4-12 0-2-1-3-1-3 0-1 0-2 0-2s0 0 1 0c1 0 2 0 4 0 3 0 7 0 13 1 3 0 6 1 10 2 3 1 7 2 10 4 8 3 16 8 24 16 8 7 16 18 21 30 5 13 8 27 8 42 0 4 0 8-1 11 0 4-1 8-2 11-1 4-1 7-2 11-1 2-2 3-2 5l-1 2-1 2c-4 11-8 21-13 30-9 20-19 37-27 51-3 7-6 13-9 18-2 6-4 12-5 18-1 5 0 12 1 18 0 3 0 6 1 8 1 3 1 6 2 8 1 5 3 9 3 12 1 3 2 4 2 4s-2 0-5-1c-3 0-7-1-12-3-3-1-5-2-8-4-3-1-7-3-10-6-7-4-14-11-20-20-6-9-11-21-13-34-3-12-3-26-1-38 1-12 4-24 7-35z" horiz-adv-x="1000" />

<glyph glyph-name="hotel-bell" unicode="&#xe836;" d="M1000-86l-22 74v81h-956v-83l-22-72h1000z m-74 307h1v0c0 221-169 403-385 424v56h51v85h-186v-85h51v-56c-215-21-383-201-385-420h0v-4 0-81h853l0 81 0 0z" horiz-adv-x="1000" />

<glyph glyph-name="hotel-building" unicode="&#xe837;" d="M898 687v-65h-99v144h92v84h-874v-84h92v-832h-92v-84h874v84h-92v433h99v-66h85v386h-85z m-266-300v44h87v-44h-87z m87-41v-45h-87v45h87z m-87 126v45h87v-45h-87z m0 85v45h87v-45h-87z m0 85v45h87v-45h-87z m-148-255v44h88v-44h-88z m88-41v-45h-88v45h88z m-88 126v45h88v-45h-88z m0 85v45h88v-45h-88z m0 85v45h88v-45h-88z m-148-255v44h88v-44h-88z m88-41v-45h-88v45h88z m-88 126v45h88v-45h-88z m0 85v45h88v-45h-88z m0 85v45h88v-45h-88z m-147-255v44h87v-44h-87z m87-41v-45h-87v45h87z m-87 126v45h87v-45h-87z m0 85v45h87v-45h-87z m0 85v45h87v-45h-87z m160-708v165c0 58 47 105 105 105 58 0 105-47 105-105v-165h-210z m450 517v86h99v-86h-99z" horiz-adv-x="1000" />

<glyph glyph-name="hotel-hair-dryer" unicode="&#xe838;" d="M234 450v-75-384h253v204c0 52-18 88-34 121-10 21-19 41-25 66l397 13v268l-591 20v-233z m-234 79c0-92 51-152 130-152h44v305h-44c-79 0-130-60-130-153z m878 130v-259l122-51v360l-122-50z" horiz-adv-x="1000" />

<glyph glyph-name="hotel-lamp" unicode="&#xe839;" d="M851 175l-57 586-16 11c-4 3-104 78-278 78s-274-75-278-78l-16-11-56-586h306v-237h-96v-88h280v88h-96v237h108v-100h88v100h111v0z" horiz-adv-x="1000" />

<glyph glyph-name="hotel-lift" unicode="&#xe83a;" d="M93-150h372v750h-372v-750z m186 437l72-124h-144l72 124z m256 313v-750h372v750h-372z m186-437l-72 124h144l-72-124z m-53 555c0 74-74 132-168 132-94 0-168-58-168-132v-51h336v51h0z" horiz-adv-x="1000" />

<glyph glyph-name="iron-service" unicode="&#xe83b;" d="M547 601h178v-92h-178v92z m288 136h-46-362v-93h362v-169h-561l-227-360h999v268 92 262h-165z m-835-681h1000v-93h-1000v93z" horiz-adv-x="1000" />

<glyph glyph-name="karaoke-room" unicode="&#xe83c;" d="M771 638c46 50 45 127-3 175-48 48-126 49-175 3 13-34 39-72 73-105 33-33 71-60 105-73z m-181-3c18-18 39-29 62-34 23-5 46-3 68 4-31 17-62 41-91 69-29 29-52 60-69 91-8-22-9-45-4-68 5-22 16-44 34-62z m159-459c-28 16-58 16-71 16h-98v341l46 42c-23 5-44 16-62 34-18 18-29 40-34 63l-194-213 16-16c-35-32-96-89-117-111-38-39-50-91-32-135 20-47 70-75 133-75h153v-181h-99v-91h288v91h-98v181h98c9 0 25 0 37-7 5-3 21-11 21-50h69c0 66-30 97-56 111z m-413 16c-35 0-60 12-68 32-8 18-1 41 17 59 21 22 83 80 116 110l12-12 76 69v-258l-153 0 0 0z" horiz-adv-x="1000" />

<glyph glyph-name="large-key" unicode="&#xe83d;" d="M548 231v481 48 90h-96v-90h-98v-95h98v-76h-98v-96h98v-262c-84-21-146-97-146-187 0-107 87-194 194-194s194 87 194 194c0 90-62 166-146 187z m-48-303c-13 0-24 9-26 21-1 2-1 4-1 6 0 15 12 27 27 27s27-12 27-27c0-2 0-4 0-6-3-12-14-21-27-21z" horiz-adv-x="1000" />

<glyph glyph-name="laundry-service" unicode="&#xe83e;" d="M158 728c14 0 25-11 25-24s-11-25-25-25-24 11-24 25 11 24 24 24z m79 0c14 0 25-11 25-24s-11-25-25-25c-13 0-24 11-24 25s11 24 24 24z m447 0c14 0 25-11 25-24s-11-25-25-25-24 11-24 25 11 24 24 24z m79 0c13 0 24-11 24-24s-11-25-24-25-25 11-25 25 11 24 25 24z m79 0c13 0 24-11 24-24s-11-25-24-25-25 11-25 25 11 24 25 24z m-342-693c120 0 217 98 217 217s-97 217-217 217-217-97-217-217c0-119 97-217 217-217z m0 390c95 0 173-77 173-173 0-1 0-2-1-3-7-7-16-12-31-12-18 0-27 8-36 15-9 8-17 15-34 15s-25-7-34-15c-9-7-18-15-36-15-18 0-27 8-36 15-9 8-17 15-34 15-17 0-25-7-34-15-9-7-18-15-36-15-16 0-25 6-33 13 0 1 0 2 0 2 0 96 77 173 172 173z m-421-575h842v805h-842v-805z m421 669c147 0 266-120 266-267 0-147-119-266-266-266-147 0-266 119-266 266 0 147 119 267 266 267z m-421 331h842v-87h-842v87z" horiz-adv-x="1000" />

<glyph glyph-name="margarita-drink" unicode="&#xe83f;" d="M543 193l281 306-31 72h-120l30 166 81 35-34 78-123-53-41-226h-379l-31-72 281-306v-258h-138v-85h362v85h-138v258z m-152 546c-67 0-121-55-121-122h242c0 67-54 122-121 122z" horiz-adv-x="1000" />

<glyph glyph-name="medicine-bottle" unicode="&#xe840;" d="M139 594v-744h722v744h-722z m583-613h-444v374h444l0-374 0 0z m-499 869h554v-198h-554v198z m234-782v-9h86v9 57h66v87h-66v57 9h-86v-9-57h-66v-87h66v-57z" horiz-adv-x="1000" />

<glyph glyph-name="meeting-room" unicode="&#xe841;" d="M865 373h-730l-133-211h996l-133 211z m-865-267h1000v-89h-1000v89z m356 433c0 22-25 40-60 47 14 10 23 26 23 44 0 29-24 53-53 53-30 0-54-24-54-53 0-18 9-34 23-44-35-7-59-25-59-47v-115h180l0 115 0 0z m234 0c0 22-25 40-59 47 13 10 22 26 22 44 0 29-24 53-53 53-29 0-53-24-53-53 0-18 9-34 23-44-35-7-60-25-60-47v-115h180v115h0z m235 0c0 22-25 40-60 47 14 10 23 26 23 44 0 29-24 53-53 53-30 0-54-24-54-53 0-18 9-34 23-44-35-7-59-25-59-47v-115h180v115h0z" horiz-adv-x="1000" />

<glyph glyph-name="open-toilet" unicode="&#xe842;" d="M289 125c0-48 35-89 81-98l-15-86h-33v-91h17 322 17v91h-33l-15 86c46 9 81 50 81 98l18 200h-458l18-200z m420 348c13 34 20 71 20 110 0 69-23 135-64 186-43 52-102 81-165 81-63 0-121-29-165-81-41-51-64-117-64-186 0-39 7-76 20-110h-44v-91h100 306 100v91h-44v0z m-101 0h-216c-19 31-30 69-30 110 0 97 62 176 138 176 76 0 138-79 138-176 0-41-11-79-30-110z" horiz-adv-x="1000" />

<glyph glyph-name="running-on-a-treadmill" unicode="&#xe843;" d="M860 379l74 82-65 59-74-82-191-45 20-86 143 34-38-287-663-117 7-87h814v232l-68-12 41 309z m-597 164h81l-50-209 167-40 45-230 87 17-56 285-137 33 56 232h-226l-138-119 58-66 113 97z m103-287l-85 20-10-45-162 42-22-85 249-65 30 133z m115 253l112-26 145 80-42 77-116-64-79 18-20-85z m-8 341c49 0 89-40 89-89s-40-90-89-90-90 40-90 90 40 89 90 89z" horiz-adv-x="1000" />

<glyph glyph-name="safe-deposit-box" unicode="&#xe844;" d="M124 67h752v643h-752v-643z m255 422c47 0 87-32 98-76h221v-50h-221c-11-44-51-76-98-76-56 0-102 45-102 101 0 56 46 101 102 101z m-379 350v-902h73v-76h87v76h680v-76h87v76h73v902h-1000z m74-822v742h852v-742h-852z" horiz-adv-x="1000" />

<glyph glyph-name="security-cam" unicode="&#xe845;" d="M953 687l-686 163-63-265 571-136 34 45 100-24 39 165-28 7 33 45z m-605-42c-3-14-17-23-31-19-15 3-23 17-20 32 3 12 13 20 25 20 2 0 5 0 7-1 14-3 22-16 20-30 0-1 0-1-1-2z m83-19c-3-14-18-23-32-20-14 4-23 18-19 32 0 1 0 1 0 1 4 14 18 22 31 19 14-3 23-17 20-31 0 0 0-1 0-1z m83-20c-4-14-18-23-32-19-14 3-23 17-20 32 0 0 0 0 0 1 4 13 18 22 32 18 14-3 22-17 20-30 0-1 0-1 0-2z m-341-147l246-59v-129c-22-13-38-36-42-63l-237-72v191h-93v-477h93v188l274 84c14-10 32-16 51-16 49 0 89 40 89 89 0 32-17 60-42 76v107l224-53 21 91-562 133-22-90z" horiz-adv-x="1000" />

<glyph glyph-name="single-bed" unicode="&#xe846;" d="M345 525h516v-157h-516v157z m-208-77h146v-80h-146v80z m783-1v-134h-840v283h-80v-492h80v129h840v-129h80v169 40 134h-80z" horiz-adv-x="1000" />

<glyph glyph-name="single-hotel-bed" unicode="&#xe847;" d="M998 199l-123 194v357l-50 50h-650l-50-50v-357l-123-194h996z m-223 501v-242c-54 15-140 30-275 30-135 0-221-15-275-30v242h550z m-775-563v-99h116v-138h100v138h568v-138h100v138h116v99h-1000z m612 385v24 55c0 35-50 63-112 63-62 0-112-28-112-63v-79c0 0 70 7 112 7 42 0 112-7 112-7z" horiz-adv-x="1000" />

<glyph glyph-name="smoking-room" unicode="&#xe848;" d="M313 237h687v-140h-687v140z m-313 0h258v-140h-258v140z m718 241c3-9 6-19 10-27 3-9 7-18 10-26l1-1 1-1 0-2c1-1 2-3 2-4 1-1 1-2 2-3 0-1 1-3 1-4 2-4 3-8 4-13 1-5 2-10 2-16-1-5-2-11-3-16 0-3-1-6-2-8 0-3-1-5-2-7-1-4-2-8-3-11-1-1-1-2-1-3 0 0 0-1 0-1s0 0 1 0c0 0 1 0 3 0 3 0 7 0 12 1 2 0 5 1 8 2 3 1 6 2 10 3 6 3 13 8 20 14 7 7 14 16 19 27 4 11 7 24 7 37 0 3-1 7-1 10 0 3-1 6-2 9 0 4-1 7-2 10 0 1-1 3-1 4l-1 2-1 2c-3 9-7 18-11 27-9 16-17 32-24 44-3 6-6 11-8 16-2 5-4 10-4 15-1 6-1 11 0 16 0 3 1 6 1 8 1 2 1 5 2 7 1 4 2 8 3 10 1 3 1 4 1 4s-1 0-4-1c-2 0-6-1-11-3-2-1-4-2-7-3-3-2-6-3-8-5-6-4-13-10-18-18-5-8-10-19-12-30-2-11-2-23-1-34 2-10 4-21 7-31z m130 0c3-9 6-19 10-27 3-9 7-18 10-26l1-1 1-1 0-2c1-1 2-3 2-4 1-1 1-2 2-3 0-1 1-3 1-4 2-4 3-8 4-13 1-5 2-10 2-16-1-5-1-11-3-16 0-3-1-6-2-8 0-3-1-5-2-7-1-4-2-8-3-11 0-1-1-2-1-3 0 0 0-1 0-1s0 0 1 0c0 0 2 0 3 0 3 0 7 0 12 1 2 0 5 1 8 2 3 1 6 2 10 3 6 3 14 8 20 14 7 7 14 16 19 27 5 11 7 24 7 37 0 3 0 7-1 10 0 3-1 6-1 9-1 4-2 7-3 10 0 1-1 3-1 4l-1 2-1 2c-3 9-7 18-11 27-9 16-17 32-24 44-3 6-6 11-8 16-2 5-4 10-4 15-1 6-1 11 0 16 0 3 1 6 1 8 1 2 1 5 2 7 1 4 2 8 3 10 1 3 1 4 1 4s-1 0-4-1c-2 0-6-1-11-3-2-1-4-2-7-3-3-2-6-3-8-5-6-4-13-10-18-18-5-8-10-19-12-30-2-11-2-23 0-34 1-10 3-21 6-31z" horiz-adv-x="1000" />

<glyph glyph-name="soup-spoon-and-fork" unicode="&#xe849;" d="M243 850c-51 0-99-28-133-76-31-43-48-101-48-161s17-118 48-162c23-33 53-56 86-67v-382-50-54c0-27 21-48 47-48s48 21 48 48v54 50 382c33 11 63 34 86 67 31 44 48 101 48 162s-17 118-48 161c-34 48-83 76-134 76z m600-48v-269l-52-45v314h-96v-314l-52 45v269h-95v-292l17-36 130-111v-361-50-54c0-27 22-48 48-48 26 0 48 21 48 48v54 50 361l130 111 17 36v292h-95z" horiz-adv-x="1000" />

<glyph glyph-name="swimming-pool-ladder" unicode="&#xe84a;" d="M960 288c-48 0-73-12-94-22-18-9-30-15-59-15-30 0-42 6-60 15-18 9-41 20-80 22v371c0 91-74 164-165 164v-80c47 0 84-38 84-84v-77h-172v77c0 91-74 164-165 164v-80c47 0 84-38 84-84v-371c-39-2-62-13-80-22-18-9-30-15-59-15-30 0-42 6-60 15-20 10-46 22-94 22h-40v-138-105-168h1000v168 105 138h-40z m-546 64h172v-74c-10-4-19-8-27-12-17-9-30-15-59-15-29 0-42 6-59 15-8 4-17 8-27 12v74z m172 150v-70h-172v70h172z" horiz-adv-x="1000" />

<glyph glyph-name="television-screen" unicode="&#xe84b;" d="M1000 104v660h-1000v-660h455v-78h-91v-90h272v90h-91v78h455z m-903 571h90v-1-466h-90v466 1z" horiz-adv-x="1000" />

<glyph glyph-name="tooth-brush-and-paste" unicode="&#xe84c;" d="M747 850v-37l-110-29-1-79 66-18-65-17-1-78 66-18-65-17-1-79 111-30v-597h95v999h-95z m-582-826h81v-174h194v174h82l6 666h-370l7-666z m219 586h54v-491-6h-54v6 476 15z m-225 234h369v-95h-369v95z" horiz-adv-x="1000" />

<glyph glyph-name="towel-on-hanger" unicode="&#xe84d;" d="M962 322l-381 300c29 23 48 59 48 99 0 71-58 129-129 129-71 0-129-58-129-129h81c0 27 22 48 48 48 27 0 48-21 48-48 0-26-21-47-48-47h-14l-11-9 0 0-437-343 25-72h125v-400h81v400h64v-400h479v400h125l25 72z m-150 9h-479-64-81-9l321 251 321-251h-9z" horiz-adv-x="1000" />

<glyph glyph-name="upstairs" unicode="&#xe84e;" d="M787 850l-638-668-12-31v-301h44 45 115 159 159 115 45 45v969l-77 31z m-56-841h-71v89h-88v71h159v-160z m43 479h-115v-160h-159v-159h-159v-160h-115v124l548 575v-220z" horiz-adv-x="1000" />

<glyph glyph-name="vintage-bathtube" unicode="&#xe84f;" d="M229 425v253c0 32 26 59 59 59 32 0 59-27 59-59h81c0 77-63 140-140 140-75 0-136-58-140-131h-1v-9-253h-147v-81h1000v81h-771z m-178-322v-18-18c0-57 42-105 96-114v-71h82v69h542v-69h82v71c54 9 96 57 96 114v18 18 193h-898v-193z" horiz-adv-x="1000" />

<glyph glyph-name="wifi-access" unicode="&#xe850;" d="M459 548v-220h82v220c33 15 55 48 55 87 0 53-43 96-96 96-53 0-96-43-96-96 0-39 22-72 55-87z m-165-25l43 70c-14 9-23 25-23 42 0 17 9 33 23 41l-43 70c-39-24-62-65-62-111 0-46 23-88 62-112z m-94-103l43 70c-51 31-81 85-81 145 0 60 30 114 81 145l-43 70c-75-46-120-127-120-215 0-89 45-169 120-215z m463 173l43-70c39 24 62 66 62 112s-23 87-62 111l-43-69c15-9 23-25 23-42 0-17-8-33-23-42z m175 42c0-60-30-114-81-145l43-70c75 46 120 126 120 215 0 88-45 169-120 215l-43-70c51-31 81-85 81-145z m-759-527v-258h842v258h-842z m91-129c0 13 10 23 23 23 13 0 23-10 23-23s-10-23-23-23c-13 0-23 10-23 23z m74 0c0 13 11 23 24 23 12 0 23-10 23-23s-11-23-23-23c-13 0-24 10-24 23z m556-23c-13 0-23 10-23 23 0 13 10 23 23 23s23-10 23-23c0-13-10-23-23-23z m-563 328l-151-131h828l-151 131h-526z" horiz-adv-x="1000" />

<glyph glyph-name="wine-bottle-and-glass" unicode="&#xe851;" d="M369 594v167h43v89h-175v-89h43v-167c-80-20-140-91-143-176h0v-568h375v568h0c-3 85-63 156-143 176z m265-123v-236h0c4-43 32-79 70-95v-201h-38v-89h164v89h-37v201c38 16 66 52 70 95h0v236h-229z" horiz-adv-x="1000" />

<glyph glyph-name="baber-scissors" unicode="&#xe852;" d="M615 276c35 16 136 67 207 165 84 118 92 256 92 262l7 147-421-585-275 381-60 85 0 0-86 119 7-147c0-6 8-144 93-262 70-98 171-149 206-165l61-86-95-133c-9 13-19 24-32 33-22 16-49 24-76 24-43 0-83-20-108-55-43-59-29-142 30-184 22-17 49-25 76-25 43 0 83 21 108 55l151 210 151-210c25-34 65-55 108-55h0c28 0 54 8 77 25 28 20 47 51 52 86 6 34-2 69-23 98-25 35-65 55-108 55-27 0-54-8-76-24-13-9-23-20-32-33l-95 133 61 86z m-374-339c-9 0-18 3-26 8-20 15-24 43-9 63 8 12 22 19 37 19 9 0 18-3 25-8 10-7 16-17 18-29 2-12-1-24-8-34-8-12-22-19-37-19z m473 53c2 12 8 22 18 29 7 5 16 8 25 8 15 0 29-7 37-19 7-10 10-22 8-34-1-11-8-22-17-29-8-5-17-8-26-8h0c-15 0-28 7-37 19-7 10-10 22-8 34z" horiz-adv-x="1000" />

<glyph glyph-name="bathroom-shower" unicode="&#xe853;" d="M541 691v159h-82v-159l-265-208 25-73h562l25 73-265 208z m-322-342h562v-81h-562v81z m91-156h82v-84h-82v84z m0-130h82v-84h-82v84z m0-129h82v-84h-82v84z m149 259h82v-84h-82v84z m0-130h82v-84h-82v84z m0-129h82v-84h-82v84z m150 259h81v-84h-81v84z m0-130h81v-84h-81v84z m0-129h81v-84h-81v84z" horiz-adv-x="1000" />

<glyph glyph-name="bell-boy" unicode="&#xe854;" d="M620 345l-120-309-120 309c-96-55-163-175-163-313v-182h566v182c0 138-67 258-163 313z m-120 0c-9 0-17-5-21-12l-53 29v-81l53 29c4-7 12-12 21-12 9 0 17 5 21 12l53-29v81l-53-29c-4 7-12 12-21 12z m-102 73c30-22 65-33 102-33s72 11 102 33c46 33 73 86 73 142 0 43-15 85-44 117l-13 14h-236l-13-14c-28-32-44-74-44-117 0-56 27-109 73-142z m-20 432h244v-122h-244v122z" horiz-adv-x="1000" />

<glyph glyph-name="001-headset" unicode="&#xe855;" d="M498 850c-223 0-407-167-435-382 34 19 72 30 113 30h76c36 103 132 177 246 177 114 0 214-74 250-177h76c41 0 80-11 113-30-28 215-216 382-439 382z m262-824c-12-34-44-59-82-59h-35c-12 34-44 59-82 59h-63c-48 0-88-40-88-88 0-49 40-88 88-88h63c38 0 70 25 82 59h35c71 0 130 50 143 117h-61z m-701 368c-36-32-59-79-59-130 0-97 79-180 176-180v356c-45 0-86-18-117-46z m205 46h-27-3v-356h30c48 0 88 40 88 88v180c0 48-40 88-88 88z m499 0h-27c-48 0-88-40-88-88v-180c0-48 40-88 88-88h30v356h-3z m178-46c-31 28-72 46-117 46v-356c97 0 176 83 176 180 0 51-23 98-59 130z" horiz-adv-x="1000" />

<glyph glyph-name="007-house" unicode="&#xe856;" d="M854 791h-117c-11 0-21-6-26-15l172-147v133h0c0 16-12 29-29 29z m-467-644v-297h234v297h-234z m146-117c-16 0-29 13-29 29s13 29 29 29 30-13 30-29-14-29-30-29z m447 430l-439 376c-11 9-25 14-38 14-14 0-28-5-38-14l-444-376c-25-21-28-57-7-82 20-25 58-28 83-7l406 343 400-343c28-24 70-17 89 14 14 25 9 56-12 75z m-478 177l-386-326v-432c0-16 13-29 29-29h181v326c0 16 13 30 30 30h292c17 0 30-14 30-30v-326h176c16 0 29 13 29 29v432l-381 326z m117-344c0-16-13-29-29-29h-176c-16 0-29 13-29 29v176c0 16 13 29 29 29h176c16 0 29-13 29-29v-176z" horiz-adv-x="1000" />

<glyph glyph-name="008-id-card" unicode="&#xe857;" d="M293 321c-65 0-117-53-117-117v-30c0-16 13-29 29-29h176c16 0 29 13 29 29v30c0 64-52 117-117 117z m0 234c-32 0-59-26-59-58 0-33 27-59 59-59s59 26 59 59c0 32-27 58-59 58z m619 176h-824c-49 0-88-40-88-88v-586c0-48 39-88 88-88h824c49 0 88 40 88 88v586c0 48-39 88-88 88z m-293-176h176c39 0 39-58 0-58h-176c-38 0-39 58 0 58z m-150-381c0-48-40-88-88-88h-176c-48 0-88 40-88 88v30c0 96 79 175 176 175-65 0-117 53-117 118s52 117 117 117 117-53 117-117-52-118-117-118c97 0 176-79 176-175v-30z m385-29h-293c-39 0-39 59 0 59h293c38 0 38-59 0-59z m0 117h-293c-39 0-39 59 0 59h293c38 0 38-59 0-59z m0 117h-293c-39 0-39 59 0 59h293c38 0 38-59 0-59z" horiz-adv-x="1000" />

<glyph glyph-name="009-fax" unicode="&#xe858;" d="M88 670c-49 0-88-39-88-88v-586c0-48 39-87 88-87h29v761h-29z m766 180h-411c-16 0-29-13-29-29v-92h469v92c0 16-13 29-29 29z m58-180h-498v-761h498c49 0 88 39 88 87v586c0 49-39 88-88 88z m-351-644h-59c-39 0-39 58 0 58h59c38 0 38-58 0-58z m0 117h-59c-39 0-39 59 0 59h59c38 0 38-59 0-59z m0 117h-59c-39 0-39 59 0 59h59c38 0 38-59 0-59z m175-234h-58c-39 0-39 58 0 58h58c39 0 39-58 0-58z m0 117h-58c-39 0-39 59 0 59h58c39 0 39-59 0-59z m0 117h-58c-39 0-39 59 0 59h58c39 0 39-59 0-59z m176-234h-58c-39 0-39 58 0 58h58c39 0 39-58 0-58z m0 117h-58c-39 0-39 59 0 59h58c39 0 39-59 0-59z m0 117h-58c-39 0-39 59 0 59h58c39 0 39-59 0-59z m29 147c0-17-13-30-29-30h-410c-16 0-29 13-29 30v117c0 16 13 29 29 29h410c16 0 29-13 29-29v-117z m-644 322h-63c-32 0-58-26-58-59v-761c0-33 26-59 58-59h63c32 0 59 26 59 59v761c0 33-27 59-59 59z" horiz-adv-x="1000" />

<glyph glyph-name="010-contract" unicode="&#xe859;" d="M761 679c0 24-9 46-26 62l-83 83c-16 17-39 26-62 26h-6v-176h177l0 5 0 0z m-226-434c6 18 15 33 28 46l199 198v127h-206c-16 0-29 13-29 29v205h-439c-49 0-88-39-88-88v-824c0-49 39-88 88-88h585c48 0 89 39 89 88v219l-33-32c-13-13-28-22-45-28l-93-31-14-1c-24 0-46 12-60 31-14 19-17 43-10 66l28 83z m-388 78h292c16 0 29-13 29-30 0-16-13-29-29-29h-292c-17 0-30 13-30 29 0 17 13 30 30 30z m-30 88c0 16 13 29 30 29h292c16 0 29-13 29-29s-13-30-29-30h-292c-17 0-30 13-30 30z m0-235c0 16 13 30 30 30h292c16 0 29-14 29-30 0-16-13-29-29-29h-292c-17 0-30 13-30 29z m439-146c16 0 29-13 29-30 0-16-13-29-29-29h-176c-16 0-29 13-29 29 0 17 13 30 29 30h176z m-409 468c-17 0-30 14-30 30s13 29 30 29h409c16 0 29-13 29-29s-13-30-29-30h-409z m441-278l-25-77c-4-11 7-22 18-18l77 25-70 70z m228 241l-193-193 83-83c44 43 128 128 193 193l-83 83z m167 84c-10 10-26 16-42 16-16 0-31-6-41-16l-43-43 83-83c24 23 40 39 43 43 23 23 23 60 0 83z m0-83c0 0 0 0 0 0 0 0 0 0 0 0 0 0 0 0 0 0z m0 0c0 0 0 0 0 0 0 0 0 0 0 0z m0 0c1 0 1 0 0 0l0 0z" horiz-adv-x="1000" />

<glyph glyph-name="011-smartphone-1" unicode="&#xe85a;" d="M91 185c-42 104-45 220 0 330 14 36-40 58-54 22-49-120-49-254 0-374 14-36 69-14 54 22z m873 352c-15 36-69 14-55-22 43-104 45-220 0-330-14-36 40-58 55-22 48 120 48 254 0 374z m-109-44c-15 36-69 14-55-22 32-77 33-162 0-242-14-36 40-58 55-22 36 90 38 193 0 286z m-655-264c-32 78-33 162 0 242 14 36-40 58-55 22-36-90-38-193 0-286 15-36 69-14 55 22z m34-143v-29c0-48 40-88 88-88h356c48 0 88 40 88 88v29h-532z m444 645h-356c-48 0-88-40-88-88v-29h532v29c0 48-40 88-88 88z" horiz-adv-x="1000" />

<glyph glyph-name="012-24-hours" unicode="&#xe85b;" d="M502 674c-178 0-326-144-326-322s148-326 326-326 322 148 322 326-144 322-322 322z m-62-410c16 0 29-13 29-29 0-16-13-29-29-29h-118c-16 0-29 13-29 29 0 74 43 98 75 115 27 15 42 23 42 61 0 16-13 29-29 29-16 0-29-13-29-29 0-17-13-30-30-30s-29 13-29 30c0 48 39 87 88 87 48 0 88-39 88-87 0-73-43-96-73-112-20-11-33-18-40-35h84z m296 59h-29v-88c0-16-13-29-29-29-16 0-30 13-30 29v88h-87c-17 0-30 13-30 29v117c0 16 13 29 30 29 16 0 29-13 29-29v-88h58v88c0 16 14 29 30 29 16 0 29-13 29-29v-88h29c17 0 30-13 30-29s-13-29-30-29z m176 410c-16 0-29-13-29-29v-33c-94 112-233 179-381 179-275 0-502-223-502-498 0-16 13-29 29-29s30 13 30 29c0 242 201 439 443 439 139 0 269-66 351-175h-58c-16 0-29-13-29-30s13-29 29-29h117c16 0 29 13 29 29v118c0 16-13 29-29 29z m59-352c-16 0-29-13-29-29 0-242-198-443-440-443-139 0-273 66-355 175h58c16 0 29 14 29 30 0 16-13 29-29 29h-117c-16 0-29-13-29-29v-118c0-16 13-29 29-29s29 13 29 29v33c94-112 237-179 385-179 275 0 498 227 498 502 0 16-13 29-29 29z" horiz-adv-x="1000" />

<glyph glyph-name="013-mail" unicode="&#xe85c;" d="M61 453v-515c0-14 3-26 8-38l272 272c-104 105-172 173-280 281z m598-281l272-272c5 12 9 24 9 38v515c-105-104-176-175-281-281z m-159 381c-16 0-29-13-29-29s13-29 29-29c20 0 26 13 29 31-1 15-14 27-29 27z m105-410h-210l-284-284c11-6 24-9 37-9h704c13 0 26 3 37 9l-284 284z m121 707h-458c-17 0-32-14-32-32v-458l159-158h210l159 158v453c0 20-17 37-38 37z m-167-391c-16-14-36-23-59-23-48 0-88 39-88 88 0 48 40 88 88 88 49 0 88-40 88-88 0-39 59-39 59 0 0 81-66 146-147 146s-146-65-146-146c0-50 25-96 67-124 44-27 98-30 148-7 35 16 60-37 25-53-68-31-142-29-204 11-60 38-95 103-95 173 0 113 92 205 205 205s205-92 205-205c0-75-89-117-146-65z" horiz-adv-x="1000" />

</font>
</defs>
</svg>
